<?xml version="1.0" encoding="utf-8"?>
<!-- Generator: Adobe Illustrator 18.1.1, SVG Export Plug-In . SVG Version: 6.00 Build 0)  -->
<svg version="1.1" id="Capa_1" xmlns="http://www.w3.org/2000/svg" xmlns:xlink="http://www.w3.org/1999/xlink" x="0px" y="0px"
	 viewBox="0 0 595.28 453.54" enable-background="new 0 0 595.28 453.54" xml:space="preserve">
<g>
	<path fill="#FADA00" d="M938.619-45.098c0.469-2.551,0.938-5.101,1.407-7.652c2.912-4.815,3.439-10.346,4.487-15.67
		c4.005-20.34,7.85-40.713,10.524-61.283c0.074-0.62,0.147-1.239,0.221-1.859c0.213-1.07,0.425-2.14,0.638-3.209
		c2.357-11.194,2.643-22.752,5.623-34.442c5.221,4.468,8.7,9.491,12.182,14.515c0.636,0.918,1.047,2.304,2.526,1.986
		c1.369-0.294,1.449-1.671,1.773-2.755c1.428-4.776,2.776-9.577,4.283-14.328c0.438-1.382,0.65-3.5,2.12-3.724
		c1.774-0.271,2.62,1.772,3.544,3.104c3.111,4.481,4.175,9.719,5.426,14.895c0.488,2.022,0.514,4.61,3.359,4.923
		c2.4,0.264,2.718-2.131,3.672-3.531c3.28-4.813,6.391-9.741,9.623-14.587c2.999-4.498,3.505-4.544,5.648,0.594
		c2.232,5.349,4.221,10.83,5.855,16.389c1.174,3.998,2.616,3.665,4.907,1.074c4.965-5.613,10.012-11.154,14.874-16.854
		c2.149-2.519,3.483-2.767,4.477,0.738c2.033,7.174,5.016,14.076,6.201,21.491c0.545,3.412,1.5,4.503,4.587,1.644
		c5.134-4.756,10.383-9.381,14.967-14.686c2.526-2.923,4.066-2.724,5.108,1.156c1.774,6.606,2.863,13.322,3.679,20.098
		c0.441,3.663,2.123,4.339,4.724,1.669c4.183-4.292,8.219-8.726,12.383-13.037c1.512-1.565,2.466-3.903,5.148-4.333
		c0.2,0.92,0.392,1.551,0.469,2.196c0.822,6.913,1.64,13.827,2.43,20.744c0.415,3.632,1.745,4.42,4.598,1.72
		c4.202-3.976,8.505-7.845,12.766-11.76c0.834-0.766,1.579-2.189,2.788-1.716c1.445,0.566,1.085,2.252,1.102,3.523
		c0.078,5.851,1.016,11.583,2.064,17.323c0.71,3.888,2.234,3.879,4.863,1.603c4.023-3.482,8.107-6.893,12.211-10.28
		c2.489-2.053,4.203-2.551,4.391,1.804c0.23,5.311,0.885,10.607,1.485,15.896c0.193,1.7-0.87,3.902,1.148,4.999
		c2.555,1.389,3.871-1.144,5.563-2.258c4.656-3.066,9.138-6.487,15.852-6.886c-1.539,3.377-2.711,6.096-4.001,8.758
		c-8.195,16.905-16.297,33.837-21.03,52.147c-2.369,9.163-4.555,18.409-7.602,27.353c-3.784,11.106-5.955,21.964-2.098,33.59
		c1.653,4.981,1.452,10.393-4.586,13.229c-0.716-0.352-1.633-0.529-2.118-1.083c-12.943-14.807-28.538-19.989-47.459-13.164
		c-2.845,1.026-4.334,0.162-5.894-2.549c-11.023-19.146-32.217-28.525-54.077-24.209c-33.755,6.665-50.206,44.161-31.722,72.305
		c14.448,21.999,43.79,28.775,67.638,15.587c1.886-1.043,3.444-2.336,5.851-0.805c6.693,4.259,14.404,5.883,21.899,8.067
		c9.869,2.876,20.209,4.898,26.963,13.859c4.729,13.295,0.108,22.395-13.172,25.939c-7.408-0.532-14.312-2.749-20.924-6.072
		c-1.305-0.656-3.225-2.878-4.174-0.947c-0.985,2.005,1.888,2.501,3.349,3.246c7.023,3.582,14.357,6.117,22.631,6.089
		c-1.325,5.662-2.605,11.132-3.884,16.601c-2.058,6.525-3.452,13.061-2.327,20.028c1.187,7.347-3.214,13.324-10.543,15.113
		c-9.978,2.436-19.441-0.711-28.95-2.812c-18.06-3.99-35.209-10.693-52.101-18.091c-0.7-0.144-1.433-1.307-2.084,0.068
		c0,0,0.002,0.001,0.002,0.001c0.377-2.251-1.772-2.006-2.792-2.491c-15.846-7.537-30.591-16.688-43.763-28.391
		c-5.074-4.508-10.612-8.587-16.991-11.234c-5.798-2.406-11.05-1.265-15.784,2.681c-4.642,3.87-5.426,8.949-4.215,14.473
		c0.932,4.25,2.833,8.137,5.33,11.708c11.675,16.697,28.018,25.6,47.938,28.015c4.172,0.506,5.169,1.933,5.413,5.78
		c0.207,3.266-1.899,6.164-0.896,9.392c0,0-0.032,0.039-0.032,0.039c-0.291-0.567-0.675-0.638-1.15-0.213
		c-2.58,1.904-5.174,3.228-8.69,2.715c-3.611-0.527-5.53-4.613-8.49-4.544c-2.973,0.069-3.607,5.256-7.251,5.861
		c-0.155,0.026-0.327-0.044-0.491-0.07c-3.483-5.776-8.14-10.53-13.558-14.404c-20.068-14.347-39.727-29.477-65.05-35.58
		c3.674-4.375,7.901-7.442,10.663-11.764c4.101-4.012,7.207-8.8,9.12-14.095c2.158-5.974,4.787-10.075,11.967-7.111
		c0.146,0.06,0.329,0.037,0.495,0.038c0.864,0.007,1.786-0.088,1.916-1.115c0.132-1.045-0.867-1.338-1.607-1.542
		c-0.949-0.261-1.963-0.377-2.951-0.389c-11.445-0.131-16.614-11.348-14.865-22.029c1.692-10.331,11.363-16.363,21.582-13.567
		c2.899,0.793,5.587,2.087,8.181,3.606c0.891,0.521,2.026,1.903,2.959,0.431c0.883-1.393-0.762-1.913-1.603-2.568
		c-0.648-0.505-1.378-1.02-2.152-1.228c-4.689-1.264-4.321-4.097-3.044-7.902c5.386-16.047,10.14-32.288,14.283-48.705
		C932.319-13.463,937.19-28.907,938.619-45.098z M938.499,89.719c-7.702-1.255-15.147-0.839-21.079,4.781
		c-5.179,4.906-7.259,11.419-8.103,18.327c4.17-5.373,4.983-12.553,10.383-17.172C925.153,90.99,932.344,92.095,938.499,89.719z
		 M906.24,69.96c-2.744,2.548-5.723,4.722-6.156,8.404c-0.192,1.629-1.407,4.405,0.682,4.758c2.31,0.39,1.126-2.509,1.528-3.896
		c1.06-3.664,3.382-6.512,6.827-7.304c2.951-0.679,4.237,2.497,5.472,4.828c0.408,0.771,0.856,1.427,1.889,1.132
		c0.161-6.29-9.817-13.602-16.733-11.7C901.972,67.475,903.866,68.578,906.24,69.96z"/>
	<path fill="#FC4C03" d="M728.987,198.497c2.685,0.078,3.188-2.2,4.221-3.903c9.511-9.112,21.01-14.809,33.195-19.349
		c11.849-4.414,24.177-6.842,36.581-8.98c16.218-1.624,32.44-1.559,48.706,0.172c-8.766-4.228-18.27-2.859-28.836-3.718
		c4.725-3.754,8.482-6.399,11.827-9.49c3.52-3.252,8.104-5.489,10.182-10.188c0,0-0.03,0.053-0.029,0.053
		c0.832,0.152,1.608,0.25,0.996-1.015c0,0,0.016-0.015,0.017-0.015c1.207,0.544,1.256-0.076,1.006-0.998
		c0,0-0.017,0.019-0.016,0.018c0.433-0.063,0.865-0.127,1.298-0.19c-0.096-0.268-0.192-0.536-0.289-0.803
		c0,0,0.015-0.014,0.015-0.014c0.355,0.054,0.699,0.772,1.041,0.1c0.144-0.283-0.016-0.721-0.038-1.088c0,0,0.008-0.024,0.008-0.024
		c3.31-0.106,5.134-1.988,5.997-5.019c0,0-0.031,0.038-0.031,0.038c3.244,0.388,4.84-3.737,8.554-2.771
		c5.129,1.333,10.545,1.583,15.646,2.992c15.588,4.306,28.891,13.125,42.055,22.102c9.311,6.35,19.08,12.171,26.228,21.202
		c2.059,2.601,4.104,5.272,4.708,8.629c0.19,1.059,0.037,2.549-0.599,3.301c-0.943,1.116-2.114-0.17-3.104-0.579
		c-2.756-1.14-5.344-2.934-8.197-3.546c-22.874-4.913-43.25,0.8-60.661,15.982c-10.429,9.093-14.3,21.033-5.863,34.792
		c0.99,1.614,1.718,3.329,0.514,5.578c-2.632,4.92-4.796,10.09-7.34,15.564c-7.94-7.666-16.171-14.554-25.353-20.258
		c-28.639-17.789-60.435-24.987-93.479-28.064c-6.346-2.186-12.932-1.721-19.476-1.827c-1.622-0.026-3.838,0.914-4.431-1.816
		C725.688,203.076,727.338,200.786,728.987,198.497z"/>
	<path fill="#060720" d="M848.026,519.24c-0.074-1.189-0.149-2.379-0.223-3.569c-0.132-0.493-0.264-0.985-0.395-1.477
		c-0.456-0.397-0.911-0.793-1.367-1.189c-0.651-0.346-1.302-0.693-1.953-1.039c5.549-3.167,1.582-8.365,3.63-13.213
		c-11.559,3.934-22.037,7.498-32.909,9.772c-25.583,5.351-50.835,5.414-75.534-4.235c-2.834-1.107-3.885-0.453-3.961,2.438
		c-0.025,0.943,0.156,2.006-1.03,2.852c-1.69-3.129-0.578-6.274-0.16-9.233c1.162-8.24,3.31-16.261,6.645-23.909
		c0.916-2.1,0.767-3.461-0.952-5.208c-4.845-4.924-5.135-7.721-2.121-13.831c0.8-1.622,1.87-3.1,1.135-5.137
		c-1.833-5.078,0.049-9.192,3.863-12.454c2.7-2.308,3.399-4.128,1.051-7.404c-4.288-5.984-4.124-11.288,0.465-16.899
		c2.445-2.989,0.473-4.388-1.016-6.301c-5.587-7.181-5.831-13.654-0.714-19.406c0.301-0.339,0.842-0.464,1.271-0.688
		c0.485,0.086,0.97,0.171,1.456,0.256c-0.439,2.01-2.159,3.441-2.721,5.249c-1.396,4.494-0.831,8.759,2.378,12.598
		c6.066,7.257,13.52,12.515,22.248,16.002c1.601,0.64,2.907,1.671,2.316,3.185c-0.573,1.468-2.272,0.932-3.458,0.227
		c-4.368-2.596-9.36-4.109-13.231-7.563c-1.749-1.561-3.962-3.737-5.971-2.33c-2.247,1.574-3.86,4.309-2.99,7.708
		c1.673,6.535,5.007,11.466,11.035,15.059c5.412,3.226,11.571,5.037,17.72,9.314c-9.165,1.62-14.591-3.881-20.761-7.094
		c-2.078-1.082-3.586-3.941-6.26-1.029c-2.609,2.843-6.35,5.098-4.645,9.986c1.854,5.313,6.141,8.158,10.866,10.214
		c4.755,2.069,9.798,3.479,14.902,5.243c-1.24,1.477-2.477,1.098-3.581,1.2c-7.206,0.673-12.747-3.811-18.979-6.155
		c-1.353-1.081-2.647-2.672-4.54-0.985c-1.622,1.446-2.208,3.147-0.743,5.095c0.481,2.726,2.47,4.242,4.587,5.61
		c5.497,3.554,11.954,3.439,18.058,4.705c15.85,3.286,31.631,3.304,47.581,0.295c10.542-1.988,20.772-4.702,30.801-8.47
		c4.438-1.668,5.014-2.342,2.517-6.383c-1.597-2.584-3.584-4.156-6.893-3.777c-10.592,1.214-21.207,0.134-31.789-0.197
		c-5.309-0.166-10.94-1.024-15.96-4.818c3.507-1.081,4.788-1.205,6.291-0.841c9.338,2.264,18.788,3.99,28.414,3.621
		c8.107-0.311,16.301-0.702,24.238-2.207c4.266-0.809,8.685-1.633,12.966-2.945c3.983-1.22,8.232-4.522,13.57-1.618
		c-2.759,1.275-4.698,2.617-7.178,3.243c-5.716,1.443-11.183,3.798-17.242,3.921c-1.911,0.039-5.104,1.269-3.594,3.558
		c3.025,4.588,7.281,7.951,13.393,8.257c6.152,0.309,11.753-1.548,17.418-3.397c1.404-0.458,3.121-1.16,3.784,0.824
		c0.691,2.069-0.967,2.244-2.54,2.673c-10.108,2.752-20.18,5.736-31.315-0.976c1.068,3.233-0.074,4.781-0.924,6.5
		c-3.352,6.779-1.13,10.229,6.22,10.393c10.14,0.227,19.915-1.819,29.855-3.451c9.162-1.503,17.858-4.247,26.678-6.695
		c5.203-1.444,10.125-3.896,15.187-5.861c8.323-3.231,15.982-7.64,23.078-13.031c2.33-1.77,2.744-3.853,1.069-6.496
		c-2.994-4.724-7.202-8.229-11.365-11.777c-1.525-1.3-2.935-0.943-4.062,0.95c-6.511,10.943-17.116,16.515-28.251,21.387
		c-1.261,0.552-2.531,1.466-3.114-0.548c-0.488-1.683,0.73-2.056,2.147-2.606c8.339-3.235,15.845-8.023,22.258-14.141
		c3.89-3.711,6.01-8.911,7.173-14.276c0.195-0.9,0.125-2.256-0.422-2.825c-0.871-0.908-1.773,0.196-2.539,0.764
		c-8.13,6.04-17.186,10.408-26.726,13.49c-3.935,1.271-8.032,4.184-13.515,2.3c5.321-4.405,11.191-5.204,16.491-7.14
		c12.497-4.565,23.752-10.519,30.941-22.407c2.943-4.867,2.849-5.393-3.129-5.941c0.897-2.878,3.355-1.298,5.091-1.78l-0.004,0.01
		c0.691,1.049,1.381,2.098,2.072,3.147c0.088,0.512,0.175,1.024,0.263,1.537c-3.862,6.092-5.658,12.79-6.467,19.93
		c-0.309,2.727,0.129,4.204,2.399,5.701c6.324,4.17,11.512,9.442,14.77,16.429c1.055,2.263,2.091,4.247-1.582,5.121
		c-1.177,0.28-2.679,1.25-2.429,2.74c0.197,1.176,1.768,1.321,2.838,1.734c9.627,3.721,18.909,8.016,26.126,15.736
		c0.022,1.275,0.672,1.915,1.946,1.924c1.091,0.591,1.893,1.437,2.317,2.617c-0.051,0.43-0.101,0.86-0.151,1.291l-0.347,0.344
		c-0.967-0.607-2.096-1.055-2.876-1.846c-7.755-7.872-17.009-13.305-27.229-17.342c-3.156-1.246-5.904-1.588-8.933,0.119
		c-14.795,8.341-30.547,14.354-46.94,18.624c-12.484,3.252-25.313,4.662-38.107,6.072c-2.812,0.31-4.333,1.154-4.71,3.931
		c-0.671,4.943-1.056,9.894-1.075,14.893c-0.014,3.555,1.577,4.643,4.953,5.424c6.801,1.574,13.73,1.889,20.577,2.904
		c8.502,1.261,17.092,2.729,25.64,2.71c19.171-0.043,38.09-2.463,55.973-9.974c7.488-3.145,15.42-5.552,21.256-11.822
		c1.886-2.026,2.585-5.067,5.409-6.252c0.085,1.092,0.17,2.184,0.256,3.276c-3.452,5.713-8.454,9.357-14.435,12.363
		c-29.266,14.71-60.114,17.46-92.018,12.939c-9.174-1.3-18.32-2.8-27.479-4.209c-1.207,0.171-1.275,0.88-0.859,1.817
		c0.172,1.374,0.344,2.748,0.516,4.122C849.151,519.209,848.589,519.224,848.026,519.24z M783.17,509.096
		c8.734,1.448,18.242-0.989,27.714-2.314c7.877-1.102,15.576-3.962,23.334-6.08c4.153-1.133,8.422-2.802,12.066-5.529
		c2.213-1.656,1.523-3.846,1.598-5.918c0.054-1.498-1.006-1.765-2.29-2.016c-6.124-1.195-6.346-1.783-5.189-7.934
		c0.469-2.494,2.88-5.423,0.768-7.483c-2.327-2.269-4.773,1.08-7.29,1.473c-3.135,0.49-4.424,2.241-2.752,5.29
		c1.081,1.971,0.655,3.679-0.123,5.677c-1.88,4.828-5.349,7.581-9.988,9.694c-9.784,4.455-17.866,1.11-20.512-8.968
		c-0.499-1.902-0.569-3.851-3.525-3.796c-11.951,0.225-23.885,0.451-35.76-1.795c-4.633-0.876-9.22-1.908-13.676-3.288
		c-2.277-0.705-3.408-0.706-4.251,1.475c-1.705,4.409-3.665,8.742-5.036,13.253c-2.403,7.907-1.542,10.232,4.008,11.939
		C755.261,506.772,768.389,510.026,783.17,509.096z M813.215,493.162c6.827,0.083,13.634-4.65,15.349-10.521
		c0.721-2.466,0.192-4.7-1.221-6.568c-1.461-1.931-3.324-0.298-5.009,0.045c-5.178,1.055-10.347,2.154-15.541,3.121
		c-1.549,0.288-2.727,0.422-3.079,2.442C802.554,488.331,806.383,493.078,813.215,493.162z"/>
	<path fill="#271204" d="M747.945,209.008c33.044,3.077,64.84,10.275,93.479,28.064c9.183,5.704,17.413,12.591,25.353,20.258
		c2.544-5.474,4.708-10.644,7.34-15.564c1.203-2.25,0.475-3.964-0.514-5.578c-8.436-13.759-4.565-25.699,5.863-34.792
		c17.412-15.182,37.788-20.895,60.661-15.982c2.853,0.613,5.442,2.407,8.197,3.546c0.99,0.409,2.16,1.695,3.104,0.579
		c0.636-0.752,0.789-2.242,0.599-3.301c-0.603-3.357-2.649-6.028-4.708-8.629c-7.148-9.031-16.917-14.852-26.228-21.202
		c-13.164-8.977-26.467-17.796-42.055-22.102c-5.101-1.409-10.517-1.659-15.646-2.992c-3.714-0.965-5.311,3.159-8.554,2.771
		c1.1-3.724,4.036-5.307,7.365-4.5c6.531,1.583,10.697-1.43,14.531-5.975c1.911-2.265,4.105-4.291,6.171-6.425
		c0.396,0.391,0.792,0.781,1.187,1.172c-2.762,4.321-6.99,7.389-10.663,11.764c25.323,6.103,44.982,21.233,65.05,35.58
		c5.419,3.874,10.075,8.628,13.558,14.404c2.508,0.996-0.139,4.02,2.027,5.151c1.081,3.446-2.009,7.342,1.14,10.564
		c-0.32,0.468-0.64,0.936-0.96,1.404c-4.859-5.605-10.972-8.801-18.27-10.199c-13.089-2.506-25.516-0.072-37.487,4.943
		c-9.764,4.09-18.569,9.751-23.95,19.35c-1.473,2.628-3.413,5.215,2.358,6.328c17.161,3.309,32.856,10.2,46.605,21.264
		c9.159,7.37,16.747,16.022,22.816,26.078c0.906,1.501,1.665,4.595,4.613,2.056c0.318,0.383,0.635,0.766,0.953,1.148
		c-0.932,2.027-2.508,3.441-4.365,4.588c-0.428-0.407-0.857-0.814-1.285-1.221c-0.498-5.464-4.629-8.925-7.376-13.119
		c-1.201-1.834-2.111-0.224-2.839,0.939c-2.459,3.927-4.683,7.969-6.523,12.231c-2.275,5.268-2.324,5.247,3.419,5.442
		c1.091,0.243,2.418-0.095,3.068,1.24c-1.68,0.54-1.432,1.914-1.386,3.201c-0.507,0.593-1.014,1.187-1.521,1.779
		c-0.499-2.053-0.616-4.134-3.747-4.191c-2.946-0.054-3.543,1.693-4.172,3.812c-2.221,7.478-3.604,15.078-3.171,22.91
		c0.066,1.199-0.849,3.279,1.782,3.165l0.261,0.289c0.071,0.49,0.142,0.98,0.212,1.469c-1.149,1.752-2.366,3.482-1.82,5.769
		c-0.442,1.085-0.289,2.026,0.671,2.771c0.415,1.438,0.829,2.875,1.244,4.313c-0.295,0.886-0.59,1.771-0.885,2.656
		c-1.939-4.629-3.07-9.44-3.604-14.438c-2.057-19.249,3.672-36.538,13.593-52.604c2.334-3.779,1.839-5.818-1.004-8.801
		c-11.116-11.662-24.23-20.093-39.254-25.795c-3.121-1.184-4.672-0.47-6.559,2.026c-14.698,19.443-22.589,41.32-23.438,65.636
		c-0.929,26.626,6.924,50.804,21.121,73.109c0.614,0.965,1.5,2.04,1.503,3.066c0.022,6.436,3.571,10.866,8.033,14.844
		c-0.856,0.038-1.578,0.305-1.969,1.144c-4.61-3.424-7.588-7.853-8.353-13.629c-0.292-2.204-1.389-3.994-2.526-5.87
		c-17.191-28.362-25.381-58.89-17.685-91.63c2.713-11.542-0.189-18.046-8.866-23.912c-0.826-0.558-1.56-1.249-2.353-1.857
		c-32.048-24.574-69.37-33.344-108.645-36.309c-2.2-0.166-3.792,0.806-5.482,1.882c-9.047,5.76-14.632,14.335-19.32,23.649
		c-0.221-0.179-0.442-0.358-0.662-0.537c-0.13-0.561-0.261-1.121-0.391-1.682c0.432-1.851-0.06-3.553-0.733-5.268
		c-2.294-5.841-1.79-11.537,1.027-17.083c0.577,0.053,1.154,0.105,1.731,0.158c-2,5.427-3.416,10.853-0.041,17.095
		c4.135-6.45,8.584-11.745,13.923-16.258c1.446-1.222,1.168-2.593-0.747-2.647c-4.244-0.121-8.591-1.254-12.712,0.781
		c-0.378-0.421-0.756-0.842-1.135-1.263c0.224-1.52,0.97-2.761,2.039-3.831c0.779,0.619,1.558,1.238,2.337,1.857
		C731.498,208.382,739.722,208.695,747.945,209.008z M876.593,236.079c3.248-2.997,4.895-6.899,7.44-10.117
		c0.767-0.969,2.64-2.465,1.522-3.248c-3.44-2.406-7.813-2.322-11.787-3.333c-1.153-0.293-1.89,0.453-1.997,1.633
		c-0.075,0.825-0.055,1.663-0.012,2.492C872,228.122,873.836,232.115,876.593,236.079z"/>
	<path fill="#36281A" d="M1134.997,19.214c6.038-2.836,6.239-8.248,4.586-13.229c-3.858-11.627-1.686-22.485,2.098-33.59
		c3.047-8.943,5.233-18.19,7.602-27.353c4.734-18.31,12.835-35.242,21.03-52.147c1.29-2.662,2.462-5.381,4.001-8.758
		c-6.714,0.399-11.196,3.819-15.852,6.886c-1.692,1.114-3.008,3.647-5.563,2.258c-2.017-1.097-0.955-3.299-1.148-4.999
		c-0.599-5.288-1.255-10.585-1.485-15.896c-0.189-4.355-1.903-3.857-4.391-1.804c-4.104,3.386-8.188,6.798-12.211,10.28
		c-2.629,2.275-4.154,2.285-4.863-1.603c-1.048-5.74-1.986-11.472-2.064-17.323c-0.017-1.271,0.344-2.957-1.102-3.523
		c-1.209-0.473-1.954,0.95-2.788,1.716c-4.261,3.914-8.564,7.783-12.766,11.76c-2.853,2.7-4.183,1.912-4.598-1.72
		c-0.79-6.917-1.608-13.831-2.43-20.744c-0.077-0.645-0.269-1.276-0.469-2.196c-2.683,0.43-3.637,2.768-5.148,4.333
		c-4.164,4.311-8.2,8.745-12.383,13.037c-2.601,2.669-4.283,1.993-4.724-1.669c-0.816-6.776-1.905-13.492-3.679-20.098
		c-1.042-3.88-2.582-4.079-5.108-1.156c-4.583,5.305-9.833,9.931-14.967,14.686c-3.086,2.859-4.042,1.768-4.587-1.644
		c-1.184-7.416-4.168-14.318-6.201-21.491c-0.993-3.506-2.328-3.257-4.477-0.738c-4.862,5.7-9.91,11.241-14.874,16.854
		c-2.292,2.591-3.733,2.924-4.907-1.074c-1.633-5.559-3.623-11.04-5.855-16.389c-2.144-5.138-2.649-5.092-5.648-0.594
		c-3.232,4.846-6.343,9.774-9.623,14.587c-0.954,1.401-1.272,3.795-3.672,3.531c-2.846-0.313-2.871-2.901-3.359-4.923
		c-1.25-5.176-2.315-10.414-5.426-14.895c-0.924-1.332-1.77-3.374-3.544-3.104c-1.471,0.224-1.682,2.342-2.12,3.724
		c-1.506,4.751-2.854,9.552-4.283,14.328c-0.324,1.084-0.404,2.461-1.773,2.755c-1.479,0.318-1.889-1.068-2.526-1.986
		c-3.482-5.023-6.961-10.046-12.182-14.515c-2.98,11.69-3.266,23.248-5.623,34.442c-0.619-0.001-1.238-0.002-1.858-0.004
		c1.609-11.856,3.227-23.711,4.819-35.569c0.402-2.992,1.57-3.505,3.735-1.285c3.488,3.575,6.945,7.171,9.858,11.257
		c0.735,1.031,1.387,2.618,2.939,2.308c1.54-0.308,1.427-2.055,1.824-3.245c1.315-3.938,2.45-7.937,3.813-11.858
		c1.717-4.938,2.994-5.111,6.696-1.199c4.305,4.547,5.899,10.305,7.336,16.144c0.345,1.403,0.092,3.508,1.683,3.826
		c1.956,0.39,2.391-1.905,3.253-3.183c3.257-4.83,6.417-9.726,9.592-14.611c3.414-5.253,3.704-5.205,6.794,0.506
		c2.468,4.562,4.139,9.426,5.807,14.304c0.524,1.533,0.431,3.845,2.046,4.292c2.061,0.571,2.924-1.851,4.086-3.112
		c4.398-4.77,8.571-9.747,12.946-14.539c3.397-3.72,4.316-3.524,5.842,1.149c2.114,6.476,4.152,12.98,6.111,19.504
		c1.294,4.308,1.986,4.553,5.524,1.37c4.208-3.786,8.321-7.661,12.044-11.953c4.641-5.349,5.025-5.182,7.594,1.706
		c2.11,5.658,2.707,11.622,3.795,17.49c0.225,1.212-0.38,2.906,1.415,3.334c1.341,0.32,2.048-0.939,2.797-1.745
		c4.412-4.754,8.769-9.558,13.135-14.355c1.114-1.224,2.241-2.985,4.001-2.39c1.453,0.491,1.449,2.445,1.62,3.938
		c0.738,6.445,1.477,12.891,2.226,19.335c0.13,1.118-0.157,2.5,1.186,3.046c1.398,0.569,2.077-0.741,2.841-1.498
		c5.294-5.248,10.539-10.544,16.28-16.308c1.429,5.486,1.176,10.423,1.669,15.272c0.378,3.721-0.597,8.971,2.65,10.517
		c2.797,1.331,5.291-3.613,8.142-5.477c2.64-1.726,5.063-3.781,7.674-5.556c2.732-1.858,4.268-1.169,4.462,2.278
		c0.328,5.814,0.753,11.622,1.156,17.432c0.258,3.715,1.481,4.861,4.798,2.111c4.434-3.677,9.729-5.695,15.269-7.083
		c3.035-0.761,4.217,0.197,2.842,3.26c-4.011,8.933-7.711,18.025-12.148,26.742c-10.221,20.075-13.885,42.248-20.891,63.344
		c-3.376,10.164-4.848,20.05-1.543,30.685c2.637,8.485,0.855,11.361-6.557,16.18C1135.132,20.799,1135.065,20.006,1134.997,19.214z"
		/>
	<path fill="#221A11" d="M1134.997,19.214c0.068,0.792,0.135,1.585,0.203,2.377c0.496,1.469,0.993,2.938,1.489,4.407
		c-0.547,0.081-1.094,0.162-1.642,0.244c-8.004-17.033-29.924-27.141-48.953-19.139c-2.826,1.188-3.265,1.951-2.484,4.928
		c4.745,18.109,0.436,33.971-13.084,46.939c-3.6,3.453-2.567,4.615,1.166,6.167c13.899,5.778,29.177,7.678,42.473,15.135
		c0.619,0.321,1.239,0.642,1.858,0.962c-1.406,1.992,1.029,3.016,1.163,4.619c-0.369,0.456-0.739,0.912-1.108,1.368
		c-6.754-8.961-17.094-10.983-26.963-13.859c-7.495-2.184-15.206-3.808-21.899-8.067c-2.407-1.532-3.965-0.239-5.851,0.805
		c-23.848,13.188-53.19,6.412-67.638-15.587c-18.484-28.144-2.033-65.64,31.722-72.305c21.86-4.316,43.054,5.064,54.077,24.209
		c1.561,2.711,3.049,3.575,5.894,2.549c18.921-6.825,34.516-1.643,47.459,13.164C1133.364,18.685,1134.281,18.861,1134.997,19.214z
		 M1035.372,70.311c26.616,0.091,47.689-19.807,47.802-45.137c0.111-24.819-21.272-45.669-46.966-45.794
		c-25.91-0.126-47.852,20.667-47.959,45.448C988.143,49.686,1009.418,70.222,1035.372,70.311z"/>
	<path fill="#221A11" d="M978.139,176.317c-1.003-3.228,1.103-6.126,0.896-9.392c-0.244-3.847-1.241-5.274-5.413-5.78
		c-19.92-2.414-36.262-11.318-47.938-28.015c-2.497-3.571-4.398-7.458-5.33-11.708c-1.211-5.524-0.427-10.604,4.215-14.473
		c4.733-3.946,9.986-5.087,15.784-2.681c6.379,2.647,11.917,6.726,16.991,11.234c13.172,11.703,27.917,20.854,43.763,28.391
		c1.02,0.485,3.169,0.24,2.792,2.491c-2.066,1.321-3.483-1.152-5.363-0.918c-0.882-0.087-1.764-0.175-2.646-0.262
		c-4.45-5.067-11.057-6.591-16.52-9.995c-0.76-0.474-1.494,0.428-2.062,1.03c-5.464,5.783-10.935,11.56-16.376,17.365
		c-0.781,0.834-1.887,2.062,0.184,2.508c6.484,1.397,12.792,4.759,19.704,2.023c0.385,0.315,0.771,0.63,1.156,0.944
		c-1.151,1.209-1.325,2.73-1.374,4.291c-1.157,3.137-0.519,6.336-0.326,9.52C979.947,174.271,980.381,176.128,978.139,176.317z
		 M976.154,133.684c-0.402-0.482-0.659-0.926-1.035-1.22c-4.451-3.482-8.962-6.888-13.363-10.431
		c-1.948-1.568-2.61,0.06-3.501,1.148c-3.161,3.86-6.28,7.754-9.423,11.628c-9.729,11.992-9.542,12.544,4.904,18.59
		c2.219,0.928,3.602,0.765,5.207-0.984c5.062-5.518,10.258-10.913,15.379-16.376C974.99,135.326,975.531,134.492,976.154,133.684z
		 M938.019,143.381c1.579-0.32,2.123-1.401,2.832-2.279c3.124-3.865,6.233-7.742,9.365-11.6c8.779-10.815,8.636-10.604-2.771-18.649
		c-3.898-2.749-5.787-2.042-8.004,1.597c-1.975,3.242-4.38,6.223-6.602,9.314c-6.956,9.677-6.962,9.681,1.695,18.368
		C935.687,141.288,936.922,142.361,938.019,143.381z M925.648,127.591c4.129-5.652,8.157-11.095,12.091-16.605
		c0.898-1.258,3-2.573,1.773-4.145c-0.826-1.057-2.983-1.237-4.594-1.462c-1.084-0.151-2.294,0.171-3.376,0.511
		C921.962,108.9,919.572,117.125,925.648,127.591z"/>
	<path fill="#36281A" d="M884.091,118.356c-0.396-0.391-0.792-0.781-1.187-1.172c3.786-5.649,7.525-11.296,10.121-17.662
		c1.265-3.103,1.452-5.071-1.328-7.729c-6.35-6.072-7.715-14.25-5.41-22.185c2.232-7.684,7.842-14.193,16.442-13.618
		c7.846,0.525,8.709-3.89,10.386-9.165c8.911-28.041,16.495-56.432,22.757-85.174c0.529-2.429,2.66-4.29,2.219-6.981
		c-0.027-0.162-0.009-0.332-0.012-0.498c0.178,0.235,0.356,0.469,0.537,0.717c-1.426,16.203-6.297,31.647-10.245,47.293
		c-4.143,16.417-8.897,32.658-14.283,48.705c-1.277,3.805-1.645,6.638,3.044,7.902c0.775,0.209,1.504,0.723,2.152,1.228
		c0.841,0.655,2.486,1.175,1.603,2.568c-0.932,1.471-2.068,0.09-2.959-0.431c-2.595-1.519-5.283-2.813-8.181-3.606
		c-10.219-2.796-19.89,3.236-21.582,13.567c-1.749,10.681,3.42,21.898,14.865,22.029c0.988,0.011,2.002,0.127,2.951,0.389
		c0.74,0.204,1.739,0.496,1.607,1.542c-0.13,1.027-1.053,1.122-1.916,1.115c-0.166-0.001-0.35,0.022-0.495-0.038
		c-7.18-2.964-9.808,1.137-11.967,7.111C891.298,109.557,888.192,114.344,884.091,118.356z"/>
	<path fill="#140D0C" d="M762.976,382.224c3.062-0.755,4.445-2.224,3.049-5.608c-0.864-2.096-1.036-4.477-1.518-6.73
		c0.43-0.544,0.86-1.089,1.289-1.633c2.805,8.589,4.548,17.348,3.788,26.427c-0.205,2.452,0.619,3.715,2.927,4.343
		c12.081,3.288,24.352,4.777,36.893,4.873c5.925,0.046,9.87-1.276,10.643-7.699c0.121-0.079,0.351-0.175,0.342-0.235
		c-0.035-0.241-0.145-0.47-0.227-0.704c0.158-0.722,0.316-1.444,0.474-2.166c0.721-1.289,0.478-2.644,0.277-3.997
		c-0.247-2.63-0.494-5.26-0.741-7.89c0.585-0.322,1.17-0.644,1.755-0.966c0.917,2.761,3.273,1.915,5.05,1.74
		c8.11-0.798,16.23-0.904,24.361-0.735c3.068,0.064,6.196-0.061,8.876,1.879c-0.958,1.394-2.14,0.841-3.513,0.689
		c-10.395-1.15-20.753-0.91-31.017,1.331c-1.164,0.254-1.885,0.946-1.75,2.032c0.447,3.613-1.156,6.802-1.862,10.179
		c-1.225,5.857-1.161,5.871,4.851,5.669c0.012,0.705,0.024,1.41,0.036,2.115c-3.515-0.227-6.744,1.507-10.075,1.76
		c-14.126,1.074-28.029-1.387-41.755-4.227c-3.263-0.675-7.376-0.563-10.109-3.472c-0.169-1.742,2.267-2.228,1.948-4.042
		c0.051-1.985,0.102-3.97,0.153-5.956c1.027-2.296,2.32-4.654-1.37-5.844c-0.902-0.011-1.804-0.022-2.705-0.033l-0.093-0.266
		C762.985,382.782,762.992,382.503,762.976,382.224z"/>
	<path fill="#36281A" d="M1005.982,146.315c16.893,7.398,34.041,14.101,52.101,18.091c9.51,2.101,18.973,5.248,28.95,2.812
		c7.329-1.789,11.73-7.766,10.543-15.113c-1.125-6.967,0.269-13.503,2.327-20.028c0.174,0.82,0.108,1.771,1.147,2.125
		c-0.977,6.886-1.89,13.707-1.357,20.77c0.524,6.937-4.731,12.477-12.077,14.452c-7.533,2.026-14.892,0.504-22.21-1.031
		c-21.198-4.449-41.696-10.997-61.039-20.891C1004.906,147.106,1005.444,146.711,1005.982,146.315z"/>
	<path fill="#221A11" d="M743.845,332.659c-5.035-3.438-10.744-5.752-15.334-9.985c-10.484-9.669-16.175-21.781-18.28-35.587
		c-2.318-15.2-1.313-30.241,3.834-44.865c0.626,0.34,1.253,0.679,1.879,1.018c-2.18,7.504-3.87,15.099-4.418,22.92
		c-1.784,25.443,6.264,53.321,33.604,64.028C744.139,330.72,743.988,331.688,743.845,332.659z"/>
	<path fill="#271204" d="M844.863,143.042c-2.079,4.699-6.662,6.936-10.182,10.188c-3.345,3.091-7.102,5.736-11.827,9.49
		c10.566,0.859,20.07-0.51,28.836,3.718c-16.266-1.731-32.487-1.795-48.705-0.172c-1.014-0.668-3.96,1.466-3-2.068
		c3.743-4.848,7.534-9.65,12.694-13.127c0.447,0.323,0.894,0.646,1.341,0.969c-3.491,3.577-7.678,6.558-10.233,11.37
		c13.255,0.189,27.966-7.145,31.9-15.969c-4.286,0-8.394,0-12.501,0c-0.393-0.4-0.785-0.801-1.178-1.201
		c2.515-0.953,5.203-1.501,7.79-1.118C835.08,145.901,840.21,146.453,844.863,143.042z"/>
	<path fill="#36281A" d="M923.45,326.236c0.295-0.885,0.59-1.771,0.885-2.656c4.735,12.418,13.136,21.902,23.079,30.533
		c14.926,12.956,16.919,30.452,5.74,44.006c-2.192,2.657-4.455,5.369-8.153,6.075c-2.124-1.698-4.641-0.669-6.962-1.003
		c0,0,0.004-0.01,0.003-0.009c-0.007-0.311-0.027-0.621-0.061-0.931c4.379,0.36,8.382,0.065,11.801-3.481
		c10.312-10.697,10.892-27.404,0.844-38.31c-3.699-4.015-7.911-7.559-11.911-11.293C931.814,342.726,926.474,335.253,923.45,326.236
		z"/>
	<path fill="#36281A" d="M987.207,490.903c2.199,2.838,2.695,6.349,3.758,9.627c0.955,2.946-1.136,4.663-2.955,6.344
		c-14.285,13.203-31.745,19.552-50.455,22.987c-4.811,0.883-9.491,2.848-14.54,2.24c-0.33-0.538-0.66-1.077-0.99-1.615
		c4.249-0.723,8.479-1.554,12.791-0.29c3.209,0.94,4.05-2.864,7.09-3.418c10.431-1.902,20.411-5.566,29.765-10.72
		c4.517-2.489,8.621-5.546,12.714-8.682c4.171-3.196,5.636-6.622,2.942-11.424c-0.633-1.128-0.87-2.479-1.29-3.727
		C986.428,491.783,986.818,491.343,987.207,490.903z"/>
	<path fill="#221A11" d="M954.039-134.776c0.619,0.001,1.238,0.003,1.858,0.004c-0.213,1.07-0.425,2.139-0.638,3.209
		c-0.074,0.62-0.147,1.239-0.221,1.859c-2.674,20.571-6.52,40.943-10.524,61.283c-1.048,5.324-1.575,10.856-4.487,15.67
		c0.15-10.242,3.564-19.934,5.063-29.955c2.09-13.97,4.503-27.891,6.822-41.826c0.184-1.108,0.708-2.16,1.074-3.238
		c1.016-0.829,0.956-1.789,0.339-2.815C953.562-131.981,953.8-133.379,954.039-134.776z"/>
	<path fill="#36281A" d="M799.985,164.198c-0.96,3.534,1.986,1.399,3,2.068c-12.404,2.138-24.733,4.566-36.581,8.98
		c-12.185,4.54-23.684,10.236-33.195,19.349c-0.439-2.739,1.301-4.215,3.179-5.687c14.803-11.607,32.074-17.539,50.068-21.795
		C790.943,166.05,795.474,165.164,799.985,164.198z"/>
	<path fill="#36281A" d="M1116.022,81.235c-0.62-0.321-1.239-0.642-1.859-0.962c5.885-3.109,11.645-6.272,15.631-11.977
		c9.184-13.141,10.751-27.131,5.252-42.054c0.547-0.081,1.094-0.163,1.642-0.244C1146.894,45.89,1135.1,75.308,1116.022,81.235z"/>
	<path fill="#221A11" d="M951.882,268.192c-0.318-0.383-0.635-0.766-0.953-1.148c1.684-3.005,3.479-5.955,5.034-9.025
		c6.995-13.808,6.85-28.575,5.706-43.464c0.106-0.755,0.212-1.51,0.318-2.265c2.567,2.411,1.872,6.01,2.027,8.677
		c0.899,15.522-0.591,30.744-9.569,44.212C953.719,266.269,952.742,267.192,951.882,268.192z"/>
	<path fill="#221A11" d="M1101.051,134.203c-1.039-0.354-0.973-1.305-1.147-2.125c1.28-5.469,2.559-10.938,3.884-16.601
		c-8.274,0.027-15.608-2.507-22.631-6.089c-1.461-0.745-4.334-1.242-3.349-3.246c0.949-1.931,2.869,0.291,4.174,0.947
		c6.612,3.323,13.516,5.54,20.923,6.072c1.389,0.379,3.147-0.491,4.144,1.221C1103.988,120.667,1103.635,127.773,1101.051,134.203z"
		/>
	<path fill="#36281A" d="M844.087,511.966c0.651,0.346,1.302,0.693,1.953,1.039c-14.925,5.972-30.091,10.82-46.487,9.963
		C814.864,521.162,829.61,517.107,844.087,511.966z"/>
	<path fill="#36281A" d="M765.796,368.253c-0.43,0.545-0.859,1.089-1.289,1.634c-4.002-10.822-9.61-20.815-15.743-30.537
		c0.417-0.367,0.834-0.734,1.25-1.101C757.021,347.332,762.339,357.303,765.796,368.253z"/>
	<path fill="#36281A" d="M1107.05,114.381c-0.997-1.712-2.755-0.841-4.144-1.221c13.28-3.544,17.901-12.644,13.172-25.939
		c0.37-0.456,0.739-0.912,1.108-1.368C1124.051,96.16,1118.962,110.483,1107.05,114.381z"/>
	<path fill="#36281A" d="M954.063,185.255c-2.165-1.131,0.482-4.155-2.027-5.151c0.164,0.025,0.335,0.096,0.491,0.07
		c3.644-0.605,4.278-5.792,7.251-5.861c2.96-0.069,4.879,4.017,8.49,4.544c3.515,0.513,6.109-0.81,8.69-2.715
		c0.411,0.38,0.821,0.759,1.232,1.139c-3.728,4.053-9.018,5.114-13.848,2.873c-1.656-0.769-2.721-3.755-4.936-2.155
		C956.96,179.765,954.134,181.593,954.063,185.255z"/>
	<path fill="#36281A" d="M933.074,283.273c0.507-0.593,1.013-1.186,1.521-1.78c2.51,10.682-1.656,19.25-8.536,26.958
		c-0.34-0.425-0.679-0.849-1.02-1.273C930.334,300.09,934.135,292.499,933.074,283.273z"/>
	<path fill="#271204" d="M750.014,338.249c-0.417,0.367-0.833,0.734-1.25,1.101c-1.899-2.04-3.698-4.153-4.92-6.69
		c0.143-0.972,0.294-1.939,1.284-2.471c4.841,1.026,9.684,2.038,14.52,3.087c1.059,0.23,2.632,0.254,2.228,1.883
		c-0.321,1.295-1.63,0.697-2.541,0.538c-3.905-0.683-7.802-1.407-12.152-2.197C748.337,335.436,749.176,336.842,750.014,338.249z"/>
	<path fill="#36281A" d="M995.891,145.203c0.882,0.087,1.764,0.174,2.646,0.262c-5.52,4.538-11.039,9.076-16.559,13.614
		c-0.385-0.315-0.771-0.63-1.157-0.944C985.28,153.167,990.259,148.804,995.891,145.203z"/>
	<path fill="#221A11" d="M922.026,530.486c0.33,0.538,0.66,1.077,0.99,1.615c-2.718,0.39-5.392,1.332-8.195,0.65
		c-1.031-0.807-1.968-0.825-2.763,0.332c-7.032,0.226-14.064,2.074-21.096-0.005c0.04-0.492,0.081-0.984,0.121-1.476
		C901.423,531.935,911.726,531.25,922.026,530.486z"/>
	<path fill="#36281A" d="M961.988,212.29c-0.106,0.755-0.212,1.51-0.317,2.265c-2.008-5.977-3.717-12.084-7.427-17.332
		c0.32-0.468,0.64-0.936,0.96-1.404C959.516,200.464,961.985,205.869,961.988,212.29z"/>
	<path fill="#36281A" d="M935.981,278.292c-0.65-1.335-1.976-0.997-3.069-1.24c4.55-1.115,9.212-1.946,12.999-5.034
		c0.075,0.619,0.149,1.237,0.224,1.856C943.327,276.672,940.039,278.367,935.981,278.292z"/>
	<path fill="#36281A" d="M848.026,519.24c0.562-0.016,1.125-0.031,1.687-0.047c0.847,2.789-0.431,6.721,5.372,7.223
		C848.578,528.034,848.141,527.463,848.026,519.24z"/>
	<path fill="#36281A" d="M822.007,146.239c0.393,0.4,0.785,0.801,1.179,1.201c-3.055,1.533-6.111,3.066-9.166,4.599
		c-0.447-0.323-0.894-0.646-1.341-0.969C815.238,148.398,818.276,146.648,822.007,146.239z"/>
	<path fill="#36281A" d="M723.275,208.069c-0.779-0.619-1.558-1.238-2.337-1.857c2.053-3.229,3.174-7.429,8.048-7.715
		c-1.649,2.29-3.299,4.579-4.949,6.869C722.852,206.004,722.989,207.015,723.275,208.069z"/>
	<path fill="#36281A" d="M980.277,172.89c-0.193-3.184-0.831-6.383,0.326-9.52C981.349,166.572,981.795,169.765,980.277,172.89z"/>
	<path fill="#36281A" d="M891.083,531.602c-0.04,0.492-0.081,0.984-0.121,1.476c-2.317-0.37-4.633-0.739-8.088-1.29
		C886.401,531.142,888.738,531.105,891.083,531.602z"/>
	<path fill="#140D0C" d="M987.207,490.903c-0.39,0.44-0.779,0.88-1.169,1.32c-0.663-0.684-1.362-0.201-2.05-0.063
		c-0.085-1.092-0.17-2.184-0.253-3.274c0.004-0.437,0.006-0.876,0.008-1.315c0.361-0.439,0.722-0.878,1.082-1.317
		C985.898,487.661,987.145,488.979,987.207,490.903z"/>
	<path fill="#271204" d="M854.868,134.047c-0.862,3.031-2.686,4.913-5.997,5.019c-0.02-2.518,2.397-2.753,3.74-3.994
		c0.453-0.389,0.906-0.778,1.359-1.168C854.269,133.952,854.568,133.999,854.868,134.047z"/>
	<path fill="#271204" d="M715.943,243.24c-0.626-0.339-1.253-0.679-1.879-1.018c0.947-2.001,1.894-4.001,2.841-6.002
		c0.357-0.003,0.715-0.006,1.072-0.009c0.22,0.179,0.441,0.358,0.662,0.537C717.741,238.912,716.842,241.076,715.943,243.24z"/>
	<path fill="#140D0C" d="M751.756,384.941c2.584-1.461,5.387-2.072,8.328-2.148c-0.372,0.791-0.744,1.581-1.116,2.372
		c-1.26,0.057-2.52,0.113-3.781,0.169c-1.047-0.012-2.094-0.024-3.142-0.036L751.756,384.941z"/>
	<path fill="#140D0C" d="M938.039,403.189c2.321,0.334,4.838-0.695,6.962,1.003c0,0-0.385,0.216-0.385,0.216
		s-0.434-0.079-0.434-0.079c-1.616-0.254-3.09-0.284-3.107,1.976c0,0,0-0.005,0-0.005c-0.323-0.03-0.645-0.018-0.964,0.035
		C939.42,405.287,938.73,404.238,938.039,403.189z"/>
	<path fill="#140D0C" d="M746.82,387.03c1.34-1.417,3.085-1.878,4.936-2.089c0,0,0.289,0.357,0.289,0.357
		c-0.354,0.601-0.708,1.201-1.062,1.802c-0.602,0.076-1.204,0.152-1.806,0.228c-0.696-0.002-1.393-0.004-2.089-0.006
		C747.089,387.322,746.82,387.03,746.82,387.03z"/>
	<path fill="#060720" d="M984.826,486.254c-0.361,0.439-0.722,0.878-1.08,1.315c-1.977-0.669-1.846-2.441-2.1-4.012
		c0.278-0.287,0.556-0.574,0.834-0.86C983.627,483.642,984.454,484.798,984.826,486.254z"/>
	<path fill="#060720" d="M758.968,385.164c0.372-0.79,0.744-1.581,1.116-2.371c0,0,0.165-0.137,0.165-0.136
		c0.902,0.135,1.803,0.269,2.705,0.403c0,0,0.093,0.266,0.092,0.265C762.542,385.832,760.579,385.108,758.968,385.164z"/>
	<path fill="#36281A" d="M912.058,533.083c0.795-1.157,1.732-1.139,2.763-0.332C913.977,533.503,913.02,533.313,912.058,533.083z"/>
	<path fill="#36281A" d="M941.076,406.306c0.017-2.26,1.49-2.231,3.107-1.976C943.147,404.989,942.111,405.647,941.076,406.306z"/>
	<path fill="#140D0C" d="M745.207,389.366c-0.485-0.085-0.971-0.171-1.456-0.256c0.678-1.202,1.583-2.07,3.069-2.08
		c0,0,0.268,0.292,0.268,0.291c-0.044,0.602-0.087,1.205-0.13,1.807C746.375,389.208,745.791,389.287,745.207,389.366z"/>
	<path fill="#36281A" d="M953.324-130.584c0.616,1.026,0.677,1.985-0.339,2.815C952.747-128.75,952.704-129.707,953.324-130.584z"/>
	<path fill="#36281A" d="M923.09,319.267c-0.961-0.745-1.113-1.686-0.671-2.771C923.291,317.262,923.308,318.236,923.09,319.267z"/>
	<path fill="#36281A" d="M977.975,477.189c-1.274-0.009-1.925-0.649-1.946-1.924C977.025,475.556,977.711,476.159,977.975,477.189z"
		/>
	<path fill="#36281A" d="M762.954,383.06c-0.902-0.134-1.803-0.268-2.705-0.403c0.811-0.767,1.756-0.685,2.727-0.433
		C762.992,382.503,762.985,382.782,762.954,383.06z"/>
	<path fill="#060720" d="M981.228,481.078c0.418,0.539,0.835,1.079,1.253,1.618c-0.278,0.287-0.556,0.573-0.831,0.857
		c-1.045-0.328-1.665-1.031-1.855-2.112c0,0,0.347-0.344,0.345-0.342C980.501,481.093,980.865,481.086,981.228,481.078z"/>
	<path fill="#36281A" d="M719.612,212.336c-0.577-0.053-1.154-0.105-1.731-0.158c-0.061-0.903,0.251-1.628,1.019-2.136
		c0.378,0.421,0.756,0.842,1.135,1.262C719.894,211.648,719.753,211.992,719.612,212.336z"/>
	<path fill="#36281A" d="M849.198,515.071c-0.416-0.938-0.348-1.647,0.859-1.817C849.77,513.859,849.484,514.465,849.198,515.071z"
		/>
	<path fill="#221A11" d="M1005.982,146.315c-0.538,0.395-1.076,0.791-1.614,1.186c-0.705-0.142-0.942-0.481-0.47-1.118
		C1004.549,145.009,1005.282,146.172,1005.982,146.315z"/>
	<path fill="#221A11" d="M978.189,177.281c-0.411-0.38-0.821-0.759-1.232-1.139c0.475-0.424,0.858-0.353,1.15,0.214
		c0.096,0.199,0.223,0.39,0.272,0.6C978.4,177.044,978.258,177.171,978.189,177.281z"/>
	<path fill="#36281A" d="M717.978,236.211c-0.357,0.003-0.715,0.006-1.072,0.009c0.227-0.563,0.455-1.126,0.682-1.69
		C717.717,235.09,717.847,235.651,717.978,236.211z"/>
	<path fill="#271204" d="M946.135,273.874c-0.075-0.619-0.149-1.237-0.223-1.855c0.061-0.186,0.168-0.339,0.321-0.46
		c0.428,0.407,0.857,0.814,1.285,1.221C947.057,273.145,946.596,273.509,946.135,273.874z"/>
	<path fill="#271204" d="M845.83,142.08c0.612,1.265-0.164,1.167-0.996,1.015C844.487,142.091,844.813,141.746,845.83,142.08z"/>
	<path fill="#36281A" d="M847.408,514.194c0.132,0.492,0.264,0.984,0.395,1.477C847.671,515.179,847.54,514.687,847.408,514.194z"/>
	<path fill="#271204" d="M925.04,307.178c0.34,0.425,0.679,0.849,1.019,1.274c0.035,0.364-0.129,0.57-0.491,0.619
		c-0.374-0.445-0.749-0.89-1.123-1.335C924.573,307.475,924.771,307.289,925.04,307.178z"/>
	<path fill="#271204" d="M925.568,309.071c0,0-0.223,0.262-0.223,0.262c-0.439-0.025-0.878-0.051-1.318-0.076
		c0,0-0.261-0.289-0.261-0.289c0.226-0.411,0.453-0.822,0.679-1.232C924.819,308.181,925.194,308.626,925.568,309.071z"/>
	<path fill="#36281A" d="M924.027,309.257c0.439,0.025,0.878,0.051,1.318,0.076c-0.368,0.464-0.737,0.929-1.105,1.393
		C924.169,310.237,924.098,309.747,924.027,309.257z"/>
	<path fill="#271204" d="M846.852,141.067c0.25,0.922,0.201,1.543-1.006,0.998C845.51,141.057,845.851,140.729,846.852,141.067z"/>
	<path fill="#271204" d="M847.845,140.092c0.096,0.268,0.192,0.536,0.289,0.803c-0.432,0.063-0.865,0.126-1.298,0.19
		C846.504,140.076,846.822,139.726,847.845,140.092z"/>
	<path fill="#271204" d="M848.863,139.09c0.022,0.367,0.181,0.805,0.038,1.088c-0.341,0.672-0.686-0.046-1.041-0.1
		C847.496,139.04,847.865,138.746,848.863,139.09z"/>
	<path fill="#36281A" d="M981.228,481.078c-0.363,0.007-0.726,0.015-1.088,0.021c0.052-0.432,0.102-0.863,0.153-1.293
		C980.605,480.231,980.916,480.654,981.228,481.078z"/>
	<path fill="#36281A" d="M853.97,133.904c-0.453,0.389-0.906,0.778-1.359,1.168C852.794,134.368,853.254,133.988,853.97,133.904z"/>
	<path fill="#36281A" d="M940.111,406.336c0.32-0.054,0.641-0.066,0.964-0.035c-0.234,0.524-0.468,1.048-0.702,1.572
		C940.286,407.36,940.199,406.848,940.111,406.336z"/>
	<path fill="#271204" d="M938.499,89.719c-6.156,2.376-13.346,1.272-18.799,5.935c-5.4,4.619-6.213,11.799-10.383,17.172
		c0.844-6.908,2.924-13.421,8.103-18.327C923.352,88.88,930.798,88.464,938.499,89.719z"/>
	<path fill="#271204" d="M906.24,69.96c-2.374-1.382-4.268-2.485-6.491-3.779c6.915-1.902,16.893,5.41,16.736,11.694
		c-1.037,0.302-1.485-0.355-1.893-1.126c-1.234-2.331-2.521-5.507-5.472-4.828c-3.445,0.792-5.766,3.64-6.827,7.304
		c-0.401,1.387,0.783,4.286-1.528,3.896c-2.09-0.353-0.874-3.129-0.682-4.758C900.517,74.683,903.496,72.508,906.24,69.96z"/>
	<path fill="#36281A" d="M955.037-129.704c0.074-0.62,0.148-1.24,0.221-1.859C955.185-130.943,955.111-130.324,955.037-129.704z"/>
	<path fill="#F04706" d="M723.275,208.069c-0.286-1.054-0.423-2.065,0.763-2.703c0.593,2.73,2.809,1.79,4.431,1.816
		c6.544,0.106,13.13-0.359,19.476,1.827C739.722,208.695,731.498,208.382,723.275,208.069z"/>
	<path fill="#000184" d="M745.207,389.366c0.584-0.079,1.167-0.158,1.751-0.237c1.329,0.125,1.94-0.635,2.219-1.802
		c0.602-0.076,1.204-0.152,1.806-0.227c1.663,0.035,3.538,0.573,4.203-1.766c1.26-0.056,2.521-0.112,3.781-0.169
		c1.611-0.057,3.574,0.667,4.078-1.84c0.902,0.012,1.804,0.023,2.708,0.033c0.711,1.888-0.516,4.23,1.368,5.845
		c-0.051,1.985-0.102,3.97-0.152,5.956c-3.271,0.781-6.018-0.742-8.915-1.856c-1.073-0.413-2.938-0.752-3.534,0.66
		c-0.716,1.697,1.126,2.385,2.236,2.545c2.941,0.424,5.206,2.774,8.265,2.693c2.732,2.909,6.846,2.797,10.109,3.472
		c13.726,2.84,27.628,5.301,41.755,4.227c3.331-0.253,6.56-1.987,10.076-1.759c3.859,0.514,7.426-1.337,11.041-1.602
		c8.876-0.65,17.137-4.548,26.088-4.402c1.171,0.019,1.719-0.826,2.039-1.839c7.684-2.701,15.894-3.652,23.219-7.711
		c2.849-1.578,6.752-3.367,9.492,1.668c2.002,3.678,0.968,6.468-1,9.167c-2.236,3.068-5.058,5.659-8.771,7.004
		c-7.054,2.687-14.23,5.066-21.286,7.706c-14.973,5.603-29.856,11.099-46.219,10.251c-0.979-0.051-2.049-0.023-2.939,0.323
		c-1.047,0.407-2.244,1.145-1.997,2.497c0.236,1.288,1.565,0.953,2.489,1.015c9.307,0.623,18.355-0.769,27.326-3.228
		c11.7-3.208,22.823-8.07,34.373-11.697c3.663-1.151,7.91-1.23,10.376-4.948c3.158-1.138,6.281-3.539,9.721-1.409
		c2.192,1.357,4.438,1.056,6.703,1.398c4.123,0.623,7.962-2.28,11.593-1.657c5.23,0.898,9.424-0.516,13.741-2.717
		c5.978,0.55,6.072,1.075,3.129,5.943c-7.189,11.888-18.445,17.842-30.941,22.407c-5.301,1.936-11.171,2.735-16.491,7.14
		c5.483,1.884,9.58-1.029,13.515-2.3c9.54-3.082,18.596-7.451,26.726-13.49c0.766-0.569,1.667-1.672,2.539-0.764
		c0.547,0.57,0.616,1.926,0.422,2.825c-1.162,5.365-3.283,10.565-7.173,14.276c-6.413,6.119-13.919,10.906-22.258,14.141
		c-1.417,0.55-2.635,0.923-2.147,2.606c0.583,2.013,1.853,1.099,3.114,0.548c11.135-4.872,21.739-10.444,28.251-21.387
		c1.127-1.893,2.537-2.25,4.062-0.95c4.162,3.548,8.37,7.053,11.365,11.777c1.675,2.643,1.261,4.726-1.069,6.496
		c-7.096,5.39-14.755,9.8-23.078,13.031c-5.061,1.965-9.983,4.416-15.187,5.861c-8.82,2.448-17.517,5.192-26.678,6.695
		c-9.939,1.631-19.714,3.678-29.855,3.451c-7.35-0.165-9.572-3.614-6.22-10.393c0.85-1.719,1.991-3.267,0.924-6.5
		c11.135,6.712,21.206,3.728,31.315,0.976c1.573-0.428,3.231-0.604,2.54-2.673c-0.662-1.984-2.38-1.282-3.784-0.824
		c-5.666,1.849-11.267,3.705-17.418,3.397c-6.113-0.307-10.369-3.669-13.393-8.257c-1.51-2.29,1.683-3.519,3.594-3.558
		c6.06-0.123,11.526-2.477,17.242-3.921c2.479-0.626,4.418-1.968,7.178-3.243c-5.338-2.904-9.587,0.398-13.57,1.618
		c-4.281,1.312-8.7,2.136-12.966,2.945c-7.937,1.505-16.13,1.896-24.238,2.207c-9.626,0.369-19.077-1.357-28.414-3.621
		c-1.503-0.365-2.784-0.241-6.291,0.841c5.02,3.794,10.651,4.652,15.96,4.818c10.582,0.331,21.197,1.411,31.789,0.197
		c3.309-0.379,5.297,1.193,6.893,3.777c2.497,4.042,1.921,4.716-2.517,6.383c-10.029,3.768-20.259,6.482-30.801,8.47
		c-15.95,3.009-31.731,2.992-47.581-0.295c-6.105-1.266-12.562-1.151-18.058-4.705c-2.116-1.368-4.105-2.884-4.585-5.61
		c3.336,0.652,3.475-2.799,5.282-4.11c6.232,2.344,11.773,6.828,18.979,6.155c1.103-0.103,2.34,0.277,3.581-1.2
		c-5.104-1.764-10.147-3.173-14.902-5.243c-4.725-2.056-9.011-4.901-10.866-10.214c-1.706-4.887,2.035-7.143,4.645-9.986
		c2.674-2.913,4.182-0.053,6.26,1.029c6.17,3.213,11.596,8.714,20.761,7.094c-6.149-4.277-12.308-6.088-17.72-9.314
		c-6.028-3.593-9.362-8.524-11.035-15.059c-0.87-3.399,0.744-6.135,2.99-7.708c2.009-1.407,4.222,0.769,5.971,2.33
		c3.871,3.454,8.863,4.967,13.231,7.563c1.187,0.705,2.885,1.241,3.458-0.227c0.591-1.514-0.715-2.545-2.316-3.185
		c-8.728-3.487-16.182-8.745-22.248-16.002c-3.209-3.839-3.775-8.104-2.378-12.598C743.048,392.807,744.768,391.376,745.207,389.366
		z"/>
	<path fill="#000185" d="M979.795,481.441c0.19,1.082,0.81,1.784,1.855,2.112c0.25,1.574,0.119,3.346,2.096,4.015
		c-0.004,0.442-0.006,0.881-0.01,1.318c-2.826,1.182-3.525,4.223-5.411,6.249c-5.836,6.27-13.768,8.677-21.256,11.822
		c-17.883,7.511-36.802,9.931-55.973,9.974c-8.549,0.019-17.139-1.449-25.64-2.71c-6.846-1.016-13.776-1.33-20.577-2.904
		c-3.376-0.781-4.967-1.87-4.953-5.424c0.019-5,0.404-9.951,1.075-14.893c0.377-2.777,1.898-3.621,4.71-3.931
		c12.793-1.41,25.622-2.82,38.107-6.072c16.393-4.27,32.145-10.283,46.94-18.624c3.029-1.708,5.777-1.366,8.933-0.119
		c10.22,4.036,19.474,9.47,27.229,17.342C977.699,480.387,978.828,480.834,979.795,481.441z"/>
	<path fill="#000184" d="M783.17,509.096c-14.781,0.93-27.909-2.324-40.902-6.322c-5.551-1.708-6.412-4.033-4.008-11.939
		c1.371-4.511,3.331-8.844,5.036-13.253c0.843-2.18,1.974-2.18,4.251-1.475c4.455,1.38,9.042,2.412,13.676,3.288
		c11.875,2.246,23.808,2.02,35.76,1.795c2.956-0.056,3.026,1.894,3.525,3.796c2.646,10.078,10.728,13.423,20.512,8.968
		c4.639-2.112,8.107-4.866,9.988-9.694c0.778-1.998,1.204-3.706,0.123-5.677c-1.672-3.048-0.384-4.8,2.752-5.29
		c2.517-0.393,4.963-3.743,7.29-1.473c2.113,2.06-0.299,4.989-0.768,7.483c-1.157,6.152-0.935,6.739,5.189,7.934
		c1.284,0.251,2.344,0.518,2.29,2.016c-0.075,2.072,0.616,4.262-1.598,5.918c-3.644,2.728-7.914,4.396-12.066,5.529
		c-7.759,2.118-15.457,4.978-23.334,6.08C801.413,508.107,791.904,510.544,783.17,509.096z"/>
	<path fill="#140D0C" d="M889.07,407.425c3.712-1.345,6.535-3.936,8.771-7.004c1.967-2.699,3.001-5.489,1-9.167
		c-2.74-5.034-6.644-3.246-9.492-1.668c-7.325,4.059-15.536,5.01-23.22,7.711c-1.463-0.397-3.656,0.778-4.059-1.891
		c3.697-4.419,2.001-8.337-1.127-12.121c1.451-0.706,1.915-1.898,1.688-3.43c0.415-0.537,0.831-1.074,1.246-1.611
		c1.872,4.007,2.379,8.278,2.531,12.637c0.047,1.354-0.392,3.791,1.877,3.174c8.234-2.236,16.76-3.904,23.588-9.632
		c0.39-0.839,1.113-1.106,1.969-1.144c9.383,6.523,10.369,9.535,5.789,19.357c-1.12,2.401,0.319,2.354,1.742,2.861
		c9.444,3.365,14.174,1.388,19.626-8.267c1.107,0.589,0.905,1.654,0.956,2.627c-0.631,1.667-2.093,2.976-2.149,5.377
		c13.472,0.996,18.305-8.92,23.546-18.506c0.63,4.479-1.455,7.735-3.675,11.031c-0.868,1.288-3.298,2.202-1.693,4.49
		c0.034,0.31,0.054,0.62,0.061,0.931c-1.736,0.482-4.194-1.099-5.091,1.78c-4.318,2.199-8.512,3.613-13.742,2.715
		c-3.63-0.624-7.47,2.28-11.593,1.657c-2.265-0.342-4.511-0.042-6.703-1.398c-3.439-2.13-6.563,0.271-9.722,1.409
		C890.048,409.184,889.08,408.834,889.07,407.425z"/>
	<path fill="#F5F5F5" d="M813.215,493.162c-6.831-0.083-10.661-4.831-9.502-11.481c0.352-2.02,1.53-2.153,3.079-2.442
		c5.194-0.967,10.363-2.067,15.541-3.121c1.685-0.343,3.549-1.976,5.009-0.045c1.413,1.867,1.942,4.102,1.221,6.568
		C826.849,488.512,820.042,493.245,813.215,493.162z"/>
	<path fill="#000185" d="M744.076,461.181c-1.806,1.31-1.946,4.762-5.282,4.11c-1.467-1.947-0.88-3.649,0.742-5.094
		C741.428,458.509,742.722,460.1,744.076,461.181z"/>
	<path fill="#FAD901" d="M891.871,384.423c-6.828,5.728-15.353,7.396-23.588,9.632c-2.27,0.616-1.83-1.82-1.877-3.174
		c-0.153-4.359-0.66-8.63-2.531-12.637c-4.085-11.727-11.949-20.727-20.885-28.954c-1.17-2.493-7.555-3.52-1.526-7.982
		c-2.929-0.683-5.115,0.004-7.322,0.383c-5.909,1.013-11.815,2.008-17.837,0.855c-12.722-2.436-22.8-9.713-32.261-17.918
		c-11.828-10.258-20.054-23.004-21.602-38.711c-1.557-15.806-2.135-31.924,11.893-43.778c0.392-0.331,0.681-1.366,0.458-1.729
		c-0.533-0.869-1.547-0.702-2.101-0.013c-3.632,4.514-4.687,1.185-5.995-1.848c-0.341-0.791-0.602-2.224-1.941-1.786
		c-1.249,0.408-1.108,1.744-0.528,2.491c3.767,4.854,1.83,9.064-1.024,13.467c-1.224,1.889-1.911,4.279-2.298,6.535
		c-5.168,30.144,1.576,53.82,30.235,73.942c7.199,5.054,13.781,10.168,17.86,18.052c4.648,9.641,9.256,19.297,11.173,29.957
		c0.247,2.63,0.494,5.26,0.741,7.89c-0.501,1.304-0.701,2.629-0.277,3.997c-0.158,0.722-0.316,1.444-0.474,2.165
		c-0.241,0.288-0.279,0.601-0.115,0.939c-0.773,6.424-4.718,7.745-10.643,7.699c-12.541-0.097-24.811-1.585-36.893-4.873
		c-2.307-0.628-3.132-1.891-2.927-4.343c0.76-9.079-0.984-17.838-3.788-26.427c-3.458-10.95-8.776-20.922-15.782-30.005
		c-0.838-1.406-1.677-2.813-2.83-4.748c4.35,0.79,8.247,1.514,12.152,2.197c0.911,0.159,2.22,0.756,2.541-0.538
		c0.404-1.629-1.169-1.653-2.228-1.883c-4.836-1.05-9.679-2.062-14.52-3.087c-27.34-10.708-35.388-38.585-33.604-64.028
		c0.549-7.821,2.239-15.416,4.418-22.92c0.899-2.164,1.798-4.328,2.697-6.492c4.688-9.314,10.272-17.889,19.32-23.649
		c1.691-1.076,3.283-2.048,5.482-1.882c39.275,2.965,76.597,11.735,108.645,36.309c0.793,0.608,1.528,1.299,2.353,1.857
		c8.677,5.866,11.579,12.371,8.866,23.912c-7.695,32.739,0.495,63.267,17.685,91.63c1.137,1.876,2.235,3.667,2.526,5.87
		C884.283,376.57,887.262,380.999,891.871,384.423z"/>
	<path fill="#FAD901" d="M937.981,402.249c-1.604-2.287,0.825-3.201,1.693-4.49c2.221-3.296,4.305-6.552,3.675-11.031
		c-5.241,9.586-10.074,19.502-23.546,18.506c0.056-2.401,1.517-3.711,2.149-5.377c0.562-1.166,1.462-2.289,1.613-3.505
		c0.287-2.308,2.62-6.133,0.633-6.58c-3.21-0.722-1.522,3.752-2.89,5.558c-0.343,0.452-0.22,1.257-0.312,1.9
		c-5.452,9.655-10.181,11.632-19.626,8.267c-1.424-0.507-2.862-0.46-1.742-2.861c4.58-9.822,3.594-12.834-5.789-19.357
		c-4.462-3.978-8.01-8.409-8.033-14.844c-0.004-1.026-0.889-2.101-1.503-3.066c-14.196-22.305-22.05-46.483-21.121-73.109
		c0.848-24.316,8.739-46.192,23.438-65.636c1.887-2.496,3.438-3.21,6.559-2.026c15.024,5.702,28.138,14.133,39.254,25.795
		c2.843,2.982,3.338,5.022,1.004,8.801c-9.921,16.066-15.65,33.355-13.593,52.604c0.534,4.998,1.666,9.809,3.604,14.438
		c3.025,9.018,8.365,16.49,15.265,22.931c4.001,3.734,8.213,7.278,11.911,11.293c10.048,10.906,9.468,27.612-0.844,38.31
		C946.364,402.315,942.36,402.609,937.981,402.249z"/>
	<path fill="#FC4C03" d="M954.243,197.223c3.711,5.248,5.42,11.355,7.428,17.332c1.142,14.888,1.288,29.656-5.707,43.464
		c-1.556,3.071-3.35,6.02-5.034,9.025c-2.948,2.539-3.707-0.554-4.613-2.056c-6.069-10.056-13.657-18.708-22.816-26.078
		c-13.75-11.064-29.445-17.955-46.605-21.264c-5.772-1.113-3.831-3.701-2.358-6.328c5.381-9.599,14.186-15.26,23.95-19.35
		c11.971-5.015,24.398-7.449,37.487-4.943C943.272,188.422,949.384,191.618,954.243,197.223z"/>
	<path fill="#F04706" d="M924.445,307.736c-0.226,0.411-0.453,0.822-0.679,1.232c-2.631,0.114-1.716-1.967-1.782-3.165
		c-0.434-7.832,0.95-15.432,3.171-22.91c0.629-2.119,1.226-3.866,4.172-3.812c3.131,0.058,3.248,2.138,3.747,4.191
		c1.061,9.226-2.74,16.818-8.035,23.906C924.771,307.289,924.573,307.475,924.445,307.736z"/>
	<path fill="#F04706" d="M946.232,271.558c-0.154,0.121-0.261,0.275-0.321,0.46c-3.788,3.088-8.45,3.919-13,5.034
		c-5.741-0.196-5.692-0.175-3.417-5.443c1.84-4.262,4.064-8.304,6.523-12.231c0.728-1.163,1.638-2.773,2.839-0.939
		C941.603,262.633,945.735,266.095,946.232,271.558z"/>
	<path fill="#F04706" d="M719.612,212.336c0.141-0.344,0.282-0.688,0.423-1.031c4.121-2.034,8.467-0.9,12.712-0.78
		c1.915,0.054,2.193,1.425,0.747,2.647c-5.339,4.513-9.788,9.809-13.923,16.258C716.195,223.189,717.611,217.763,719.612,212.336z"
		/>
	<path fill="#F04706" d="M876.593,236.079c-2.757-3.964-4.593-7.958-4.834-12.573c-0.043-0.829-0.062-1.667,0.012-2.492
		c0.107-1.18,0.844-1.926,1.997-1.633c3.974,1.01,8.347,0.927,11.787,3.333c1.118,0.782-0.755,2.278-1.522,3.248
		C881.489,229.18,879.841,233.082,876.593,236.079z"/>
	<path fill="#FCFCFC" d="M1035.372,70.311c-25.954-0.089-47.229-20.624-47.122-45.483c0.107-24.781,22.049-45.574,47.959-45.448
		c25.693,0.125,47.077,20.975,46.966,45.794C1083.061,50.504,1061.988,70.402,1035.372,70.311z M1031.068,20.663
		c0.08-3.741-3.139-7.038-6.859-7.025c-3.747,0.013-7.02,3.278-6.999,6.979c0.02,3.487,3.102,6.578,6.678,6.697
		C1027.751,27.443,1030.987,24.446,1031.068,20.663z"/>
	<path fill="#FBFBFB" d="M1135.047,26.242c5.498,14.923,3.932,28.913-5.252,42.054c-3.987,5.705-9.747,8.868-15.631,11.977
		c-13.296-7.458-28.574-9.357-42.473-15.135c-3.732-1.551-4.766-2.713-1.166-6.167c13.52-12.968,17.829-28.83,13.084-46.939
		c-0.78-2.977-0.342-3.74,2.484-4.928C1105.124-0.899,1127.044,9.209,1135.047,26.242z M1116.607,37.852
		c-4.722-0.013-6.902,2.199-7.328,5.961c-0.353,3.118,3.035,6.475,6.353,6.342c3.767-0.151,6.35-2.064,6.429-6.073
		C1122.139,40.083,1119.725,38.16,1116.607,37.852z"/>
	<path fill="#F9F9F9" d="M976.154,133.684c-0.624,0.809-1.164,1.642-1.832,2.355c-5.122,5.463-10.317,10.858-15.379,16.376
		c-1.605,1.749-2.988,1.913-5.207,0.984c-14.446-6.045-14.633-6.598-4.904-18.59c3.143-3.874,6.263-7.768,9.423-11.628
		c0.891-1.088,1.553-2.717,3.501-1.148c4.401,3.543,8.912,6.949,13.363,10.431C975.495,132.758,975.752,133.202,976.154,133.684z"/>
	<path fill="#F9F9F9" d="M938.019,143.381c-1.098-1.02-2.332-2.093-3.484-3.248c-8.658-8.687-8.651-8.691-1.695-18.368
		c2.222-3.091,4.627-6.072,6.602-9.314c2.217-3.639,4.107-4.346,8.004-1.597c11.406,8.044,11.549,7.834,2.771,18.649
		c-3.132,3.858-6.241,7.735-9.365,11.6C940.142,141.979,939.599,143.06,938.019,143.381z"/>
	<path fill="#F9F9F9" d="M995.891,145.203c-5.632,3.601-10.61,7.964-15.069,12.931c-6.912,2.735-13.22-0.627-19.704-2.023
		c-2.071-0.446-0.966-1.674-0.184-2.508c5.441-5.805,10.912-11.581,16.376-17.365c0.568-0.601,1.302-1.503,2.062-1.03
		C984.834,138.613,991.44,140.136,995.891,145.203z"/>
	<path fill="#F5F5F5" d="M925.648,127.591c-6.076-10.466-3.686-18.691,5.895-21.701c1.082-0.34,2.292-0.662,3.376-0.511
		c1.61,0.225,3.768,0.405,4.594,1.462c1.227,1.572-0.875,2.887-1.773,4.145C933.805,116.496,929.777,121.939,925.648,127.591z"/>
	<path fill="#000184" d="M860.215,383.124c0.27-0.07,0.512-0.016,0.727,0.16c3.127,3.785,4.824,7.702,1.126,12.12
		c-1.7,0.561-3.393,1.584-5.1,1.607c-9.525,0.125-18.385,4.43-27.93,4.297c-1.122-0.016-1.879,0.565-2.115,1.715
		c-6.011,0.202-6.075,0.189-4.851-5.669c0.706-3.377,2.309-6.566,1.862-10.179c-0.135-1.087,0.587-1.778,1.75-2.032
		c10.264-2.241,20.622-2.481,31.017-1.331C858.075,383.965,859.257,384.518,860.215,383.124z"/>
	<path fill="#060720" d="M826.923,403.024c0.235-1.151,0.993-1.731,2.115-1.715c9.545,0.133,18.405-4.171,27.93-4.297
		c1.706-0.023,3.4-1.046,5.1-1.607c0.403,2.67,2.597,1.495,4.06,1.892c-0.32,1.013-0.867,1.858-2.038,1.839
		c-8.952-0.146-17.213,3.752-26.088,4.402c-3.615,0.265-7.182,2.116-11.041,1.602C826.948,404.434,826.936,403.729,826.923,403.024z
		"/>
	<path fill="#36281A" d="M809.958,349.366c6.012,9.507,10.333,19.67,11.97,30.874c-0.585,0.322-1.17,0.644-1.755,0.966
		c-1.917-10.66-6.525-20.316-11.173-29.958C809.826,350.879,809.857,350.105,809.958,349.366z"/>
	<path fill="#060720" d="M765.021,399.2c-3.059,0.082-5.324-2.269-8.265-2.693c-1.109-0.16-2.952-0.847-2.236-2.545
		c0.596-1.412,2.461-1.073,3.534-0.66c2.897,1.114,5.643,2.637,8.915,1.856C767.289,396.972,764.852,397.458,765.021,399.2z"/>
	<path fill="#060720" d="M767.122,389.203c-1.883-1.615-0.656-3.956-1.368-5.845C769.442,384.549,768.149,386.907,767.122,389.203z"
		/>
	<path fill="#36281A" d="M820.636,393.093c-0.424-1.368-0.224-2.693,0.277-3.997C821.115,390.449,821.358,391.804,820.636,393.093z"
		/>
	<path fill="#36281A" d="M820.047,396.197c-0.164-0.338-0.125-0.651,0.115-0.939c0.082,0.234,0.192,0.464,0.227,0.704
		C820.398,396.023,820.168,396.118,820.047,396.197z"/>
	<path fill="#F04706" d="M814.02,152.04c3.056-1.533,6.111-3.067,9.166-4.599c4.107,0.001,8.214,0.001,12.5,0.001
		c-3.934,8.824-18.645,16.159-31.9,15.969C806.342,158.598,810.53,155.616,814.02,152.04z"/>
	<path fill="#060720" d="M755.187,385.334c-0.665,2.339-2.54,1.802-4.203,1.766c0.354-0.602,0.708-1.202,1.062-1.803
		C753.093,385.31,754.14,385.322,755.187,385.334z"/>
	<path fill="#060720" d="M749.178,387.327c-0.28,1.167-0.89,1.927-2.219,1.802c0.043-0.603,0.086-1.206,0.13-1.808
		C747.785,387.324,748.482,387.326,749.178,387.327z"/>
	<path fill="#060720" d="M889.07,407.425c0.01,1.41,0.978,1.759,2.122,1.917c-2.465,3.719-6.711,3.799-10.374,4.949
		c-11.551,3.628-22.673,8.49-34.373,11.697c-8.97,2.46-18.018,3.851-27.326,3.228c-0.924-0.062-2.253,0.274-2.489-1.015
		c-0.248-1.352,0.949-2.09,1.997-2.497c0.89-0.346,1.96-0.374,2.939-0.323c16.363,0.848,31.245-4.648,46.219-10.251
		C874.84,412.491,882.016,410.112,889.07,407.425z"/>
	<path fill="#36281A" d="M862.629,379.855c-4.651-11.46-12.598-20.592-20.843-29.515c0.401-0.35,0.802-0.7,1.203-1.049
		c8.937,8.227,16.801,17.228,20.885,28.954C863.46,378.781,863.044,379.318,862.629,379.855z"/>
	<path fill="#271204" d="M920.997,397.23c0.091-0.643-0.031-1.448,0.312-1.9c1.369-1.806-0.319-6.28,2.89-5.558
		c1.987,0.447-0.346,4.272-0.633,6.58c-0.152,1.216-1.051,2.34-1.613,3.505C921.902,398.884,922.104,397.819,920.997,397.23z"/>
	<path fill="#271204" d="M842.99,349.29c-0.401,0.35-0.802,0.7-1.203,1.049c-4.959-6.015-11.502-6.422-18.62-5.657
		c-4.916,0.528-9.893,0.137-14.608-1.727c-0.857-0.339-1.59-0.266-2.158,0.495c0.465-0.042,0.987-0.024,0.531-0.709
		c-0.148,0.237-0.295,0.473-0.443,0.71c1.156,1.972,2.313,3.943,3.469,5.915c-0.101,0.739-0.132,1.513-0.959,1.883
		c-4.079-7.883-10.661-12.997-17.86-18.051c-28.659-20.122-35.403-43.797-30.235-73.942c0.387-2.256,1.073-4.646,2.298-6.535
		c2.854-4.403,4.792-8.613,1.024-13.467c-0.58-0.747-0.721-2.083,0.528-2.491c1.339-0.438,1.6,0.995,1.941,1.786
		c1.308,3.033,2.364,6.362,5.995,1.848c0.554-0.689,1.568-0.856,2.101,0.013c0.223,0.363-0.065,1.398-0.458,1.729
		c-14.028,11.853-13.45,27.971-11.893,43.778c1.547,15.707,9.774,28.453,21.602,38.711c9.461,8.206,19.54,15.482,32.261,17.918
		c6.022,1.153,11.928,0.158,17.837-0.855c2.207-0.378,4.393-1.066,7.322-0.383C835.435,345.771,841.82,346.797,842.99,349.29z"/>
	<path fill="#140D0C" d="M1031.068,20.663c-0.081,3.782-3.316,6.779-7.18,6.651c-3.576-0.119-6.658-3.209-6.678-6.697
		c-0.021-3.701,3.252-6.966,6.999-6.979C1027.929,13.625,1031.148,16.923,1031.068,20.663z"/>
	<path fill="#140D0C" d="M1116.607,37.852c3.117,0.308,5.532,2.231,5.453,6.231c-0.079,4.009-2.662,5.922-6.429,6.073
		c-3.318,0.133-6.706-3.225-6.353-6.342C1109.705,40.051,1111.885,37.839,1116.607,37.852z"/>
	<path fill="#F5F5F5" d="M806.489,343.451c0.148-0.237,0.295-0.473,0.443-0.71c0.456,0.685-0.066,0.667-0.531,0.709
		C806.377,343.452,806.489,343.451,806.489,343.451z"/>
</g>
</svg>
