<?xml version="1.0" encoding="utf-8"?>
<!-- Generator: Adobe Illustrator 18.1.1, SVG Export Plug-In . SVG Version: 6.00 Build 0)  -->
<svg version="1.1" id="Capa_1" xmlns="http://www.w3.org/2000/svg" xmlns:xlink="http://www.w3.org/1999/xlink" x="0px" y="0px"
	 viewBox="0 0 595.28 453.54" enable-background="new 0 0 595.28 453.54" xml:space="preserve">
<g>
	<path fill="#FADA00" d="M345.822,106.236c0.253-1.375,0.506-2.75,0.759-4.126c1.57-2.596,1.854-5.578,2.419-8.448
		c2.159-10.966,4.232-21.949,5.674-33.039c0.04-0.334,0.079-0.668,0.119-1.002c0.115-0.577,0.229-1.154,0.344-1.73
		c1.271-6.035,1.425-12.266,3.031-18.569c2.815,2.409,4.69,5.117,6.567,7.825c0.343,0.495,0.565,1.242,1.362,1.071
		c0.738-0.159,0.781-0.901,0.956-1.485c0.77-2.575,1.497-5.163,2.309-7.724c0.236-0.745,0.35-1.887,1.143-2.008
		c0.957-0.146,1.412,0.955,1.911,1.673c1.677,2.416,2.251,5.24,2.925,8.03c0.263,1.09,0.277,2.485,1.811,2.654
		c1.294,0.142,1.465-1.149,1.98-1.904c1.768-2.595,3.446-5.251,5.188-7.864c1.617-2.425,1.889-2.45,3.045,0.32
		c1.203,2.884,2.276,5.839,3.156,8.836c0.633,2.155,1.41,1.976,2.646,0.579c2.677-3.026,5.398-6.013,8.019-9.086
		c1.159-1.358,1.878-1.492,2.414,0.398c1.096,3.868,2.704,7.588,3.343,11.587c0.294,1.84,0.809,2.428,2.473,0.887
		c2.768-2.564,5.598-5.058,8.069-7.918c1.362-1.576,2.192-1.469,2.754,0.623c0.956,3.562,1.543,7.182,1.983,10.835
		c0.238,1.975,1.145,2.339,2.547,0.9c2.255-2.314,4.431-4.704,6.676-7.029c0.815-0.844,1.329-2.104,2.776-2.336
		c0.108,0.496,0.211,0.836,0.253,1.184c0.443,3.727,0.884,7.455,1.31,11.184c0.224,1.958,0.941,2.383,2.479,0.927
		c2.265-2.144,4.585-4.23,6.883-6.34c0.449-0.413,0.851-1.18,1.503-0.925c0.779,0.305,0.585,1.214,0.594,1.899
		c0.042,3.154,0.548,6.245,1.113,9.339c0.383,2.096,1.205,2.091,2.622,0.864c2.169-1.877,4.371-3.716,6.583-5.542
		c1.342-1.107,2.266-1.375,2.367,0.973c0.124,2.863,0.477,5.719,0.8,8.57c0.104,0.916-0.469,2.104,0.619,2.695
		c1.378,0.749,2.087-0.617,2.999-1.217c2.51-1.653,4.927-3.497,8.546-3.712c-0.829,1.821-1.461,3.287-2.157,4.722
		c-4.418,9.114-8.786,18.242-11.338,28.114c-1.277,4.94-2.455,9.925-4.098,14.747c-2.04,5.987-3.211,11.841-1.131,18.11
		c0.891,2.685,0.783,5.603-2.473,7.132c-0.386-0.19-0.88-0.285-1.142-0.584c-6.978-7.983-15.386-10.777-25.587-7.097
		c-1.534,0.553-2.336,0.087-3.178-1.374c-5.943-10.322-17.369-15.379-29.154-13.052c-18.198,3.593-27.067,23.808-17.102,38.982
		c7.789,11.861,23.608,15.513,36.465,8.403c1.017-0.562,1.857-1.26,3.155-0.434c3.608,2.296,7.766,3.172,11.806,4.349
		c5.321,1.551,10.895,2.641,14.536,7.472c2.549,7.168,0.058,12.074-7.101,13.984c-3.994-0.287-7.716-1.482-11.28-3.274
		c-0.703-0.354-1.739-1.552-2.25-0.511c-0.531,1.081,1.018,1.348,1.806,1.75c3.786,1.931,7.74,3.298,12.201,3.283
		c-0.714,3.053-1.404,6.001-2.094,8.95c-1.109,3.518-1.861,7.042-1.255,10.797c0.64,3.961-1.733,7.183-5.684,8.148
		c-5.379,1.313-10.481-0.384-15.608-1.516c-9.737-2.151-18.982-5.765-28.089-9.753c-0.377-0.077-0.773-0.705-1.124,0.036
		c0,0,0.001,0,0.001,0c0.203-1.214-0.955-1.082-1.505-1.343c-8.543-4.064-16.492-8.997-23.594-15.306
		c-2.735-2.43-5.721-4.629-9.16-6.056c-3.126-1.297-5.958-0.682-8.509,1.445c-2.502,2.086-2.925,4.825-2.272,7.803
		c0.502,2.291,1.527,4.387,2.873,6.312c6.294,9.002,15.105,13.802,25.844,15.103c2.249,0.273,2.787,1.042,2.918,3.116
		c0.112,1.761-1.024,3.323-0.483,5.063c0,0-0.017,0.021-0.017,0.021c-0.157-0.305-0.364-0.344-0.62-0.115
		c-1.391,1.027-2.79,1.74-4.685,1.464c-1.947-0.284-2.981-2.487-4.577-2.45c-1.603,0.037-1.945,2.833-3.909,3.16
		c-0.084,0.014-0.176-0.024-0.265-0.038c-1.878-3.114-4.388-5.677-7.31-7.766c-10.819-7.735-21.418-15.892-35.07-19.182
		c1.98-2.358,4.26-4.012,5.749-6.342c2.211-2.163,3.886-4.744,4.917-7.599c1.164-3.221,2.581-5.432,6.452-3.834
		c0.079,0.032,0.177,0.02,0.267,0.021c0.466,0.004,0.963-0.048,1.033-0.601c0.071-0.564-0.467-0.721-0.866-0.831
		c-0.511-0.141-1.058-0.203-1.591-0.21c-6.17-0.071-8.957-6.118-8.014-11.876c0.912-5.57,6.126-8.822,11.635-7.314
		c1.563,0.428,3.012,1.125,4.411,1.944c0.48,0.281,1.093,1.026,1.595,0.233c0.476-0.751-0.411-1.031-0.864-1.384
		c-0.349-0.272-0.743-0.55-1.16-0.662c-2.528-0.681-2.33-2.209-1.641-4.26c2.904-8.651,5.467-17.407,7.7-26.258
		C342.426,123.291,345.052,114.965,345.822,106.236z M345.758,178.919c-4.152-0.677-8.166-0.452-11.364,2.577
		c-2.792,2.645-3.914,6.156-4.369,9.881c2.248-2.897,2.686-6.768,5.598-9.258C338.562,179.605,342.439,180.2,345.758,178.919z
		 M328.366,168.267c-1.479,1.374-3.086,2.546-3.319,4.531c-0.103,0.878-0.759,2.375,0.368,2.565c1.246,0.21,0.607-1.353,0.824-2.1
		c0.572-1.975,1.823-3.511,3.68-3.938c1.591-0.366,2.284,1.346,2.95,2.603c0.22,0.415,0.461,0.77,1.019,0.61
		c0.087-3.391-5.293-7.333-9.021-6.308C326.065,166.927,327.086,167.522,328.366,168.267z"/>
	<path fill="#FC4C03" d="M232.804,237.564c1.448,0.042,1.719-1.186,2.276-2.104c5.128-4.913,11.327-7.984,17.896-10.431
		c6.388-2.38,13.035-3.689,19.722-4.841c8.744-0.875,17.489-0.841,26.259,0.093c-4.726-2.279-9.85-1.541-15.546-2.004
		c2.547-2.024,4.573-3.45,6.376-5.116c1.898-1.753,4.369-2.959,5.49-5.493c0,0-0.016,0.028-0.016,0.028
		c0.449,0.082,0.867,0.135,0.537-0.547c0,0,0.009-0.008,0.009-0.008c0.651,0.293,0.677-0.041,0.542-0.538c0,0-0.009,0.01-0.009,0.01
		c0.233-0.034,0.467-0.068,0.7-0.102c-0.052-0.144-0.104-0.289-0.156-0.433c0,0,0.008-0.007,0.008-0.008
		c0.191,0.029,0.377,0.416,0.561,0.054c0.078-0.153-0.009-0.389-0.02-0.587c0,0,0.004-0.013,0.004-0.013
		c1.785-0.057,2.768-1.072,3.233-2.706c0,0-0.017,0.02-0.017,0.02c1.749,0.209,2.609-2.014,4.612-1.494
		c2.765,0.719,5.685,0.853,8.435,1.613c8.404,2.321,15.576,7.076,22.673,11.916c5.02,3.423,10.286,6.562,14.14,11.431
		c1.11,1.402,2.213,2.842,2.538,4.652c0.103,0.571,0.02,1.374-0.323,1.78c-0.509,0.601-1.14-0.092-1.673-0.312
		c-1.486-0.614-2.881-1.582-4.419-1.912c-12.332-2.649-23.317,0.431-32.704,8.616c-5.622,4.902-7.709,11.34-3.161,18.757
		c0.533,0.87,0.926,1.795,0.277,3.007c-1.419,2.652-2.586,5.44-3.957,8.391c-4.281-4.133-8.718-7.846-13.669-10.921
		c-15.44-9.591-32.582-13.471-50.397-15.13c-3.421-1.179-6.972-0.928-10.5-0.985c-0.875-0.014-2.069,0.493-2.389-0.979
		C231.025,240.033,231.915,238.799,232.804,237.564z"/>
	<path fill="#060720" d="M296.981,410.485c-0.04-0.641-0.08-1.282-0.12-1.924c-0.071-0.266-0.142-0.531-0.213-0.796
		c-0.246-0.214-0.491-0.428-0.737-0.641c-0.351-0.187-0.702-0.373-1.053-0.56c2.992-1.707,0.853-4.51,1.957-7.124
		c-6.232,2.121-11.881,4.042-17.742,5.268c-13.792,2.885-27.406,2.919-40.722-2.283c-1.528-0.597-2.095-0.244-2.135,1.315
		c-0.013,0.508,0.084,1.081-0.555,1.538c-0.911-1.687-0.311-3.383-0.086-4.978c0.627-4.443,1.785-8.767,3.583-12.89
		c0.494-1.132,0.414-1.866-0.513-2.808c-2.612-2.655-2.769-4.162-1.143-7.457c0.431-0.874,1.008-1.671,0.612-2.77
		c-0.989-2.737,0.026-4.956,2.083-6.714c1.455-1.245,1.833-2.225,0.567-3.992c-2.312-3.226-2.223-6.086,0.251-9.111
		c1.318-1.611,0.255-2.366-0.548-3.397c-3.012-3.872-3.144-7.361-0.385-10.462c0.162-0.182,0.454-0.25,0.685-0.371
		c0.261,0.046,0.523,0.092,0.785,0.138c-0.237,1.083-1.164,1.855-1.467,2.83c-0.753,2.423-0.448,4.722,1.282,6.792
		c3.27,3.912,7.289,6.747,11.994,8.627c0.863,0.345,1.567,0.901,1.249,1.717c-0.309,0.792-1.225,0.503-1.864,0.122
		c-2.355-1.4-5.046-2.215-7.133-4.077c-0.943-0.842-2.136-2.015-3.219-1.256c-1.211,0.848-2.081,2.323-1.612,4.156
		c0.902,3.523,2.699,6.182,5.949,8.119c2.918,1.739,6.238,2.716,9.553,5.021c-4.941,0.873-7.866-2.092-11.193-3.824
		c-1.12-0.583-1.933-2.125-3.375-0.555c-1.407,1.533-3.424,2.749-2.504,5.383c1,2.865,3.311,4.398,5.858,5.507
		c2.564,1.116,5.282,1.876,8.034,2.827c-0.669,0.796-1.336,0.592-1.93,0.647c-3.885,0.363-6.872-2.055-10.232-3.318
		c-0.73-0.583-1.427-1.441-2.448-0.531c-0.875,0.779-1.191,1.697-0.401,2.747c0.259,1.469,1.332,2.287,2.473,3.024
		c2.963,1.916,6.444,1.854,9.736,2.536c8.545,1.772,17.053,1.781,25.652,0.159c5.684-1.072,11.199-2.535,16.606-4.566
		c2.393-0.899,2.703-1.262,1.357-3.441c-0.861-1.393-1.932-2.241-3.716-2.036c-5.71,0.655-11.433,0.072-17.138-0.106
		c-2.862-0.09-5.898-0.552-8.605-2.597c1.891-0.583,2.581-0.65,3.392-0.453c5.034,1.221,10.129,2.151,15.319,1.952
		c4.371-0.168,8.788-0.378,13.067-1.19c2.3-0.436,4.682-0.881,6.99-1.588c2.147-0.658,4.438-2.438,7.316-0.872
		c-1.488,0.687-2.533,1.411-3.87,1.748c-3.082,0.778-6.029,2.047-9.296,2.114c-1.03,0.021-2.752,0.684-1.938,1.918
		c1.631,2.474,3.925,4.286,7.221,4.452c3.317,0.166,6.336-0.834,9.391-1.831c0.757-0.247,1.683-0.625,2.04,0.444
		c0.372,1.115-0.521,1.21-1.37,1.441c-5.45,1.484-10.879,3.092-16.883-0.526c0.576,1.743-0.04,2.578-0.498,3.504
		c-1.807,3.655-0.609,5.514,3.353,5.603c5.467,0.122,10.737-0.981,16.095-1.86c4.939-0.811,9.628-2.29,14.383-3.61
		c2.805-0.779,5.459-2.1,8.188-3.16c4.487-1.742,8.616-4.119,12.442-7.025c1.256-0.954,1.479-2.077,0.576-3.502
		c-1.614-2.547-3.883-4.436-6.127-6.349c-0.822-0.701-1.582-0.508-2.19,0.512c-3.51,5.9-9.228,8.904-15.231,11.53
		c-0.68,0.297-1.364,0.79-1.679-0.295c-0.263-0.907,0.393-1.108,1.157-1.405c4.496-1.744,8.542-4.325,12-7.624
		c2.097-2.001,3.24-4.804,3.867-7.697c0.105-0.485,0.068-1.216-0.227-1.523c-0.47-0.489-0.956,0.105-1.369,0.412
		c-4.383,3.256-9.265,5.611-14.409,7.273c-2.122,0.685-4.33,2.256-7.286,1.24c2.869-2.375,6.033-2.806,8.891-3.85
		c6.737-2.461,12.806-5.671,16.681-12.08c1.587-2.624,1.536-2.908-1.687-3.203c0.484-1.552,1.809-0.7,2.745-0.96l-0.002,0.005
		c0.372,0.566,0.745,1.131,1.117,1.697c0.047,0.276,0.094,0.552,0.142,0.828c-2.082,3.285-3.051,6.895-3.486,10.745
		c-0.166,1.47,0.07,2.267,1.293,3.074c3.409,2.248,6.206,5.09,7.963,8.858c0.569,1.22,1.127,2.29-0.853,2.761
		c-0.634,0.151-1.444,0.674-1.31,1.477c0.106,0.634,0.953,0.712,1.53,0.935c5.19,2.006,10.194,4.321,14.085,8.484
		c0.012,0.688,0.362,1.032,1.049,1.037c0.588,0.318,1.02,0.775,1.249,1.411c-0.027,0.232-0.054,0.464-0.081,0.696l-0.187,0.185
		c-0.521-0.327-1.13-0.569-1.55-0.995c-4.181-4.244-9.17-7.173-14.68-9.349c-1.701-0.672-3.183-0.856-4.816,0.064
		c-7.976,4.497-16.469,7.738-25.307,10.041c-6.731,1.753-13.647,2.514-20.544,3.274c-1.516,0.167-2.336,0.622-2.539,2.119
		c-0.362,2.665-0.569,5.334-0.58,8.029c-0.007,1.916,0.85,2.503,2.67,2.924c3.666,0.849,7.402,1.018,11.093,1.566
		c4.584,0.68,9.215,1.472,13.823,1.461c10.336-0.023,20.535-1.328,30.176-5.377c4.037-1.696,8.313-2.993,11.46-6.374
		c1.017-1.092,1.394-2.732,2.916-3.37c0.046,0.589,0.092,1.178,0.138,1.766c-1.861,3.08-4.558,5.044-7.782,6.665
		c-15.778,7.931-32.409,9.413-49.61,6.976c-4.946-0.701-9.877-1.51-14.815-2.269c-0.651,0.092-0.687,0.474-0.463,0.98
		c0.093,0.741,0.185,1.481,0.278,2.222C297.588,410.469,297.285,410.477,296.981,410.485z M262.016,405.017
		c4.709,0.78,9.835-0.533,14.941-1.247c4.247-0.594,8.397-2.136,12.58-3.278c2.239-0.611,4.54-1.51,6.505-2.981
		c1.193-0.893,0.821-2.073,0.861-3.191c0.029-0.808-0.542-0.952-1.234-1.087c-3.301-0.644-3.421-0.961-2.797-4.278
		c0.253-1.345,1.553-2.924,0.414-4.034c-1.255-1.224-2.573,0.582-3.93,0.794c-1.69,0.264-2.385,1.208-1.483,2.852
		c0.583,1.062,0.353,1.984-0.066,3.061c-1.014,2.603-2.884,4.087-5.385,5.226c-5.275,2.402-9.632,0.599-11.058-4.835
		c-0.269-1.025-0.307-2.076-1.9-2.046c-6.443,0.121-12.877,0.243-19.279-0.968c-2.498-0.472-4.971-1.029-7.373-1.773
		c-1.227-0.38-1.837-0.38-2.292,0.795c-0.919,2.377-1.976,4.713-2.715,7.145c-1.296,4.263-0.831,5.516,2.161,6.437
		C246.969,403.764,254.047,405.518,262.016,405.017z M278.213,396.426c3.681,0.045,7.35-2.507,8.275-5.672
		c0.388-1.33,0.103-2.534-0.659-3.541c-0.788-1.041-1.792-0.161-2.701,0.024c-2.791,0.569-5.578,1.161-8.379,1.683
		c-0.835,0.155-1.47,0.228-1.66,1.316C272.466,393.822,274.53,396.381,278.213,396.426z"/>
	<path fill="#271204" d="M243.025,243.231c17.815,1.659,34.957,5.54,50.397,15.13c4.951,3.075,9.388,6.788,13.669,10.921
		c1.371-2.951,2.538-5.738,3.957-8.391c0.649-1.213,0.256-2.137-0.277-3.007c-4.548-7.418-2.461-13.855,3.161-18.757
		c9.387-8.185,20.372-11.265,32.704-8.616c1.538,0.33,2.934,1.298,4.419,1.912c0.534,0.221,1.165,0.914,1.673,0.312
		c0.343-0.405,0.425-1.209,0.323-1.78c-0.325-1.81-1.428-3.25-2.538-4.652c-3.854-4.869-9.121-8.007-14.14-11.431
		c-7.097-4.84-14.269-9.594-22.673-11.916c-2.75-0.76-5.67-0.895-8.435-1.613c-2.002-0.52-2.863,1.703-4.612,1.494
		c0.593-2.008,2.176-2.861,3.97-2.426c3.521,0.853,5.767-0.771,7.834-3.221c1.03-1.221,2.213-2.313,3.327-3.464
		c0.213,0.211,0.427,0.421,0.64,0.632c-1.489,2.33-3.768,3.984-5.749,6.342c13.652,3.29,24.251,11.447,35.07,19.182
		c2.922,2.089,5.432,4.651,7.31,7.766c1.352,0.537-0.075,2.167,1.093,2.777c0.583,1.858-1.083,3.958,0.615,5.695
		c-0.172,0.252-0.345,0.505-0.517,0.757c-2.62-3.022-5.915-4.745-9.85-5.498c-7.056-1.351-13.756-0.039-20.21,2.665
		c-5.264,2.205-10.011,5.257-12.912,10.432c-0.794,1.417-1.84,2.812,1.272,3.412c9.252,1.784,17.714,5.499,25.126,11.464
		c4.938,3.973,9.029,8.638,12.301,14.059c0.489,0.81,0.898,2.477,2.487,1.108c0.171,0.206,0.342,0.413,0.514,0.619
		c-0.502,1.093-1.352,1.855-2.353,2.473c-0.231-0.22-0.462-0.439-0.693-0.659c-0.268-2.946-2.496-4.812-3.977-7.073
		c-0.647-0.989-1.138-0.121-1.53,0.506c-1.326,2.117-2.525,4.296-3.517,6.594c-1.226,2.84-1.253,2.829,1.843,2.934
		c0.588,0.131,1.303-0.051,1.654,0.669c-0.906,0.291-0.772,1.032-0.747,1.726c-0.274,0.32-0.547,0.64-0.82,0.959
		c-0.269-1.107-0.332-2.229-2.02-2.26c-1.588-0.029-1.91,0.913-2.249,2.055c-1.197,4.031-1.943,8.129-1.709,12.351
		c0.036,0.646-0.458,1.768,0.961,1.707l0.141,0.156c0.038,0.264,0.076,0.528,0.114,0.792c-0.619,0.944-1.276,1.877-0.981,3.11
		c-0.238,0.585-0.156,1.092,0.362,1.494c0.224,0.775,0.447,1.55,0.671,2.325c-0.159,0.477-0.318,0.955-0.477,1.432
		c-1.045-2.496-1.655-5.089-1.943-7.784c-1.109-10.378,1.98-19.698,7.328-28.36c1.258-2.037,0.991-3.137-0.541-4.745
		c-5.993-6.287-13.063-10.832-21.163-13.907c-1.682-0.638-2.519-0.254-3.536,1.092c-7.924,10.482-12.178,22.277-12.636,35.386
		c-0.501,14.355,3.733,27.39,11.387,39.415c0.331,0.52,0.808,1.1,0.81,1.653c0.012,3.47,1.925,5.858,4.331,8.003
		c-0.461,0.02-0.851,0.164-1.061,0.617c-2.485-1.846-4.091-4.234-4.503-7.348c-0.157-1.188-0.749-2.153-1.362-3.165
		c-9.268-15.291-13.683-31.749-9.535-49.4c1.463-6.223-0.102-9.729-4.78-12.892c-0.445-0.301-0.841-0.673-1.269-1.001
		c-17.278-13.249-37.399-17.977-58.574-19.575c-1.186-0.09-2.044,0.434-2.956,1.015c-4.878,3.105-7.888,7.729-10.416,12.75
		c-0.119-0.096-0.238-0.193-0.357-0.289c-0.07-0.302-0.14-0.604-0.211-0.907c0.233-0.998-0.032-1.915-0.395-2.84
		c-1.237-3.149-0.965-6.22,0.554-9.21c0.311,0.028,0.622,0.057,0.933,0.085c-1.078,2.926-1.842,5.851-0.022,9.216
		c2.229-3.477,4.628-6.332,7.506-8.765c0.779-0.659,0.63-1.398-0.403-1.427c-2.288-0.065-4.632-0.676-6.853,0.421
		c-0.204-0.227-0.408-0.454-0.612-0.681c0.121-0.819,0.523-1.489,1.099-2.065c0.42,0.334,0.84,0.667,1.26,1.001
		C234.158,242.894,238.591,243.062,243.025,243.231z M312.383,257.826c1.751-1.616,2.639-3.72,4.011-5.454
		c0.413-0.523,1.423-1.329,0.82-1.751c-1.855-1.297-4.212-1.252-6.355-1.797c-0.622-0.158-1.019,0.244-1.077,0.88
		c-0.04,0.445-0.03,0.897-0.007,1.344C309.906,253.536,310.896,255.689,312.383,257.826z"/>
	<path fill="#36281A" d="M451.695,140.908c3.255-1.529,3.364-4.447,2.473-7.132c-2.08-6.268-0.909-12.122,1.131-18.11
		c1.643-4.822,2.821-9.806,4.098-14.747c2.552-9.871,6.92-19,11.338-28.114c0.696-1.435,1.328-2.901,2.157-4.722
		c-3.62,0.215-6.036,2.059-8.546,3.712c-0.912,0.601-1.622,1.966-2.999,1.217c-1.088-0.591-0.515-1.779-0.619-2.695
		c-0.323-2.851-0.676-5.707-0.8-8.57c-0.102-2.348-1.026-2.08-2.367-0.973c-2.212,1.826-4.415,3.665-6.583,5.542
		c-1.417,1.227-2.239,1.232-2.622-0.864c-0.565-3.095-1.071-6.185-1.113-9.339c-0.009-0.685,0.185-1.594-0.594-1.899
		c-0.652-0.255-1.054,0.512-1.503,0.925c-2.297,2.11-4.617,4.196-6.883,6.34c-1.538,1.456-2.255,1.031-2.479-0.927
		c-0.426-3.729-0.867-7.457-1.31-11.184c-0.041-0.348-0.145-0.688-0.253-1.184c-1.446,0.232-1.961,1.492-2.776,2.336
		c-2.245,2.324-4.421,4.715-6.676,7.029c-1.402,1.439-2.309,1.075-2.547-0.9c-0.44-3.653-1.027-7.274-1.983-10.835
		c-0.562-2.092-1.392-2.199-2.754-0.623c-2.471,2.86-5.301,5.354-8.069,7.918c-1.664,1.541-2.179,0.953-2.473-0.887
		c-0.638-3.998-2.247-7.719-3.343-11.587c-0.536-1.89-1.255-1.756-2.414-0.398c-2.621,3.073-5.343,6.06-8.019,9.086
		c-1.235,1.397-2.012,1.576-2.646-0.579c-0.881-2.997-1.953-5.952-3.156-8.836c-1.156-2.77-1.428-2.745-3.045-0.32
		c-1.742,2.613-3.42,5.269-5.188,7.864c-0.515,0.755-0.686,2.046-1.98,1.904c-1.534-0.169-1.548-1.564-1.811-2.654
		c-0.674-2.791-1.248-5.615-2.925-8.03c-0.498-0.718-0.954-1.819-1.911-1.673c-0.793,0.121-0.907,1.263-1.143,2.008
		c-0.812,2.561-1.539,5.15-2.309,7.724c-0.175,0.585-0.218,1.327-0.956,1.485c-0.797,0.171-1.019-0.576-1.362-1.071
		c-1.877-2.708-3.753-5.416-6.567-7.825c-1.607,6.302-1.761,12.534-3.031,18.569c-0.334-0.001-0.668-0.001-1.002-0.002
		c0.867-6.392,1.74-12.783,2.598-19.176c0.217-1.613,0.846-1.89,2.014-0.693c1.88,1.928,3.744,3.866,5.315,6.069
		c0.396,0.556,0.748,1.411,1.585,1.244c0.83-0.166,0.769-1.108,0.983-1.749c0.709-2.123,1.321-4.279,2.056-6.393
		c0.926-2.662,1.614-2.755,3.61-0.647c2.321,2.452,3.18,5.555,3.955,8.704c0.186,0.756,0.05,1.891,0.907,2.063
		c1.055,0.211,1.289-1.027,1.754-1.716c1.756-2.604,3.46-5.243,5.171-7.877c1.84-2.832,1.997-2.806,3.663,0.273
		c1.331,2.459,2.231,5.082,3.131,7.712c0.283,0.827,0.232,2.073,1.103,2.314c1.111,0.308,1.576-0.998,2.203-1.678
		c2.371-2.572,4.621-5.255,6.98-7.838c1.831-2.005,2.327-1.9,3.149,0.62c1.14,3.492,2.238,6.998,3.295,10.515
		c0.698,2.323,1.071,2.455,2.978,0.739c2.269-2.041,4.486-4.13,6.493-6.444c2.502-2.884,2.709-2.794,4.094,0.92
		c1.138,3.05,1.459,6.266,2.046,9.429c0.121,0.654-0.205,1.567,0.763,1.798c0.723,0.173,1.104-0.506,1.508-0.941
		c2.379-2.563,4.728-5.153,7.081-7.739c0.601-0.66,1.208-1.609,2.157-1.288c0.784,0.265,0.781,1.318,0.873,2.123
		c0.398,3.475,0.796,6.95,1.2,10.424c0.07,0.603-0.085,1.348,0.639,1.642c0.754,0.307,1.12-0.399,1.532-0.808
		c2.854-2.829,5.682-5.685,8.777-8.792c0.771,2.958,0.634,5.619,0.9,8.234c0.204,2.006-0.322,4.837,1.429,5.67
		c1.508,0.718,2.853-1.948,4.39-2.953c1.423-0.931,2.73-2.038,4.137-2.996c1.473-1.002,2.301-0.63,2.406,1.228
		c0.177,3.134,0.406,6.266,0.623,9.398c0.139,2.003,0.799,2.621,2.586,1.138c2.391-1.982,5.245-3.07,8.232-3.818
		c1.636-0.41,2.273,0.106,1.532,1.758c-2.162,4.816-4.157,9.718-6.549,14.417c-5.51,10.823-7.486,22.777-11.263,34.151
		c-1.82,5.48-2.614,10.809-0.832,16.543c1.422,4.575,0.461,6.125-3.535,8.723C451.768,141.763,451.731,141.335,451.695,140.908z"/>
	<path fill="#221A11" d="M451.695,140.908c0.036,0.427,0.073,0.855,0.109,1.282c0.268,0.792,0.535,1.584,0.803,2.376
		c-0.295,0.044-0.59,0.088-0.885,0.131c-4.315-9.183-16.133-14.632-26.392-10.318c-1.524,0.641-1.76,1.052-1.339,2.657
		c2.558,9.763,0.235,18.315-7.054,25.306c-1.941,1.862-1.384,2.488,0.628,3.325c7.493,3.115,15.73,4.139,22.898,8.16
		c0.334,0.173,0.668,0.346,1.002,0.519c-0.758,1.074,0.555,1.626,0.627,2.49c-0.199,0.246-0.398,0.492-0.597,0.737
		c-3.641-4.831-9.216-5.921-14.537-7.472c-4.041-1.178-8.198-2.053-11.806-4.349c-1.298-0.826-2.138-0.129-3.155,0.434
		c-12.857,7.11-28.676,3.457-36.465-8.403c-9.965-15.173-1.096-35.388,17.102-38.982c11.785-2.327,23.212,2.73,29.154,13.052
		c0.841,1.462,1.644,1.927,3.178,1.374c10.201-3.68,18.609-0.886,25.587,7.097C450.815,140.623,451.309,140.718,451.695,140.908z
		 M397.984,168.456c14.35,0.049,25.71-10.678,25.772-24.335c0.06-13.381-11.468-24.622-25.32-24.689
		c-13.969-0.068-25.798,11.142-25.856,24.502C372.522,157.337,383.992,168.408,397.984,168.456z"/>
	<path fill="#221A11" d="M367.129,225.606c-0.541-1.74,0.594-3.303,0.483-5.063c-0.132-2.074-0.669-2.843-2.918-3.116
		c-10.739-1.302-19.55-6.102-25.844-15.103c-1.346-1.925-2.371-4.021-2.873-6.312c-0.653-2.978-0.23-5.717,2.272-7.803
		c2.552-2.128,5.384-2.743,8.509-1.445c3.439,1.427,6.425,3.626,9.16,6.056c7.102,6.31,15.051,11.243,23.594,15.306
		c0.55,0.262,1.708,0.13,1.505,1.343c-1.114,0.712-1.878-0.621-2.891-0.495c-0.475-0.047-0.951-0.094-1.426-0.141
		c-2.399-2.732-5.961-3.553-8.906-5.388c-0.41-0.255-0.806,0.231-1.112,0.555c-2.946,3.118-5.895,6.232-8.829,9.362
		c-0.421,0.449-1.017,1.112,0.099,1.352c3.496,0.753,6.896,2.566,10.623,1.091c0.208,0.17,0.416,0.339,0.624,0.509
		c-0.62,0.652-0.715,1.472-0.741,2.313c-0.624,1.691-0.28,3.416-0.176,5.132C368.103,224.503,368.337,225.505,367.129,225.606z
		 M366.058,202.622c-0.217-0.26-0.355-0.499-0.558-0.658c-2.4-1.877-4.832-3.714-7.204-5.624c-1.05-0.845-1.407,0.033-1.887,0.619
		c-1.704,2.081-3.386,4.18-5.08,6.269c-5.245,6.465-5.145,6.763,2.644,10.022c1.196,0.501,1.942,0.412,2.807-0.531
		c2.729-2.975,5.53-5.883,8.291-8.829C365.431,203.507,365.722,203.058,366.058,202.622z M345.499,207.85
		c0.852-0.173,1.144-0.756,1.527-1.229c1.684-2.084,3.361-4.174,5.049-6.254c4.733-5.83,4.656-5.717-1.494-10.054
		c-2.101-1.482-3.12-1.101-4.315,0.861c-1.065,1.748-2.361,3.355-3.559,5.021c-3.75,5.217-3.754,5.219,0.914,9.903
		C344.242,206.721,344.907,207.3,345.499,207.85z M338.829,199.337c2.226-3.047,4.398-5.982,6.518-8.952
		c0.484-0.678,1.618-1.387,0.956-2.235c-0.445-0.57-1.608-0.667-2.477-0.788c-0.584-0.081-1.237,0.092-1.82,0.276
		C336.842,189.261,335.554,193.695,338.829,199.337z"/>
	<path fill="#36281A" d="M316.425,194.359c-0.213-0.211-0.427-0.421-0.64-0.632c2.041-3.046,4.057-6.09,5.456-9.522
		c0.682-1.673,0.783-2.734-0.716-4.167c-3.424-3.274-4.159-7.683-2.917-11.96c1.204-4.143,4.228-7.652,8.864-7.342
		c4.23,0.283,4.696-2.097,5.599-4.941c4.804-15.117,8.893-30.424,12.269-45.92c0.285-1.31,1.434-2.313,1.196-3.764
		c-0.014-0.087-0.005-0.179-0.006-0.268c0.096,0.127,0.192,0.253,0.29,0.386c-0.769,8.736-3.395,17.062-5.523,25.497
		c-2.233,8.851-4.797,17.607-7.7,26.258c-0.689,2.051-0.887,3.579,1.641,4.26c0.418,0.113,0.811,0.39,1.16,0.662
		c0.453,0.353,1.34,0.633,0.864,1.384c-0.503,0.793-1.115,0.049-1.595-0.233c-1.399-0.819-2.848-1.517-4.411-1.944
		c-5.509-1.507-10.723,1.744-11.635,7.314c-0.943,5.758,1.844,11.806,8.014,11.876c0.533,0.006,1.079,0.069,1.591,0.21
		c0.399,0.11,0.938,0.267,0.866,0.831c-0.07,0.554-0.567,0.605-1.033,0.601c-0.09-0.001-0.188,0.012-0.267-0.021
		c-3.871-1.598-5.288,0.613-6.452,3.834C320.31,189.614,318.636,192.195,316.425,194.359z"/>
	<path fill="#140D0C" d="M251.129,336.617c1.651-0.407,2.396-1.199,1.644-3.023c-0.466-1.13-0.559-2.414-0.819-3.628
		c0.232-0.293,0.464-0.587,0.695-0.881c1.512,4.631,2.452,9.353,2.042,14.247c-0.111,1.322,0.334,2.003,1.578,2.341
		c6.513,1.773,13.129,2.575,19.89,2.627c3.194,0.025,5.321-0.688,5.738-4.151c0.065-0.043,0.189-0.094,0.185-0.127
		c-0.019-0.13-0.078-0.253-0.123-0.379c0.085-0.389,0.17-0.778,0.256-1.168c0.389-0.695,0.258-1.426,0.149-2.155
		c-0.133-1.418-0.266-2.836-0.399-4.254c0.315-0.173,0.631-0.347,0.946-0.521c0.494,1.489,1.764,1.032,2.723,0.938
		c4.372-0.43,8.75-0.487,13.134-0.396c1.654,0.034,3.34-0.033,4.785,1.013c-0.516,0.752-1.154,0.454-1.894,0.372
		c-5.604-0.62-11.188-0.491-16.722,0.718c-0.627,0.137-1.016,0.51-0.944,1.096c0.241,1.948-0.623,3.667-1.004,5.488
		c-0.66,3.158-0.626,3.165,2.615,3.056c0.007,0.38,0.013,0.76,0.02,1.141c-1.895-0.122-3.636,0.812-5.432,0.949
		c-7.616,0.579-15.111-0.748-22.511-2.279c-1.759-0.364-3.977-0.304-5.45-1.872c-0.091-0.939,1.222-1.201,1.05-2.179
		c0.027-1.07,0.055-2.141,0.082-3.211c0.554-1.238,1.251-2.509-0.738-3.151c-0.486-0.006-0.972-0.012-1.459-0.018l-0.05-0.144
		C251.133,336.917,251.137,336.767,251.129,336.617z"/>
	<path fill="#36281A" d="M382.139,209.432c9.107,3.989,18.352,7.602,28.089,9.753c5.127,1.133,10.229,2.829,15.608,1.516
		c3.951-0.965,6.324-4.187,5.684-8.148c-0.607-3.756,0.145-7.28,1.255-10.798c0.094,0.442,0.058,0.955,0.618,1.146
		c-0.526,3.713-1.019,7.39-0.732,11.198c0.282,3.74-2.551,6.726-6.511,7.791c-4.062,1.092-8.028,0.272-11.974-0.556
		c-11.428-2.398-22.479-5.929-32.908-11.263C381.559,209.858,381.85,209.645,382.139,209.432z"/>
	<path fill="#221A11" d="M240.814,309.895c-2.715-1.854-5.793-3.101-8.267-5.383c-5.652-5.213-8.72-11.743-9.855-19.186
		c-1.25-8.195-0.708-16.304,2.067-24.188c0.338,0.183,0.675,0.366,1.013,0.549c-1.175,4.045-2.086,8.14-2.382,12.357
		c-0.962,13.717,3.377,28.747,18.117,34.519C240.973,308.849,240.891,309.371,240.814,309.895z"/>
	<path fill="#271204" d="M295.276,207.667c-1.121,2.533-3.592,3.739-5.49,5.493c-1.804,1.666-3.829,3.092-6.376,5.116
		c5.697,0.463,10.82-0.275,15.546,2.004c-8.769-0.933-17.515-0.968-26.258-0.093c-0.547-0.36-2.135,0.791-1.617-1.115
		c2.018-2.614,4.062-5.202,6.844-7.077c0.241,0.174,0.482,0.348,0.723,0.522c-1.882,1.928-4.139,3.536-5.517,6.13
		c7.146,0.102,15.077-3.852,17.198-8.609c-2.311,0-4.525,0-6.74,0c-0.212-0.216-0.423-0.432-0.635-0.648
		c1.356-0.514,2.805-0.809,4.2-0.603C290.001,209.209,292.767,209.506,295.276,207.667z"/>
	<path fill="#36281A" d="M337.644,306.432c0.159-0.477,0.318-0.955,0.477-1.432c2.553,6.695,7.082,11.808,12.443,16.461
		c8.047,6.985,9.122,16.417,3.095,23.725c-1.182,1.433-2.402,2.894-4.395,3.275c-1.145-0.916-2.502-0.361-3.753-0.541
		c0,0,0.002-0.005,0.002-0.005c-0.004-0.168-0.015-0.335-0.033-0.502c2.361,0.194,4.519,0.035,6.362-1.877
		c5.56-5.767,5.872-14.774,0.455-20.654c-1.994-2.164-4.265-4.075-6.422-6.088C342.154,315.322,339.275,311.293,337.644,306.432z"/>
	<path fill="#36281A" d="M372.018,395.208c1.185,1.53,1.453,3.423,2.026,5.19c0.515,1.588-0.613,2.514-1.593,3.42
		c-7.702,7.118-17.115,10.541-27.202,12.393c-2.594,0.476-5.117,1.536-7.839,1.208c-0.178-0.29-0.356-0.58-0.534-0.871
		c2.29-0.39,4.571-0.838,6.896-0.156c1.73,0.507,2.183-1.544,3.823-1.843c5.624-1.025,11.004-3.001,16.047-5.78
		c2.435-1.342,4.648-2.99,6.854-4.681c2.249-1.723,3.039-3.57,1.586-6.159c-0.341-0.608-0.469-1.336-0.695-2.009
		C371.597,395.683,371.807,395.446,372.018,395.208z"/>
	<path fill="#221A11" d="M354.135,57.888c0.334,0.001,0.668,0.001,1.002,0.002c-0.115,0.577-0.229,1.153-0.344,1.73
		c-0.04,0.334-0.079,0.668-0.119,1.002c-1.442,11.09-3.515,22.074-5.674,33.039c-0.565,2.87-0.849,5.853-2.419,8.448
		c0.081-5.522,1.922-10.747,2.73-16.149c1.127-7.531,2.428-15.037,3.678-22.55c0.099-0.597,0.382-1.164,0.579-1.745
		c0.548-0.447,0.515-0.964,0.183-1.518C353.879,59.395,354.007,58.642,354.135,57.888z"/>
	<path fill="#36281A" d="M271.081,219.073c-0.518,1.905,1.071,0.754,1.617,1.115c-6.687,1.153-13.334,2.461-19.722,4.841
		c-6.569,2.447-12.769,5.519-17.896,10.431c-0.237-1.477,0.701-2.272,1.714-3.066c7.98-6.258,17.292-9.456,26.993-11.75
		C266.206,220.071,268.649,219.594,271.081,219.073z"/>
	<path fill="#36281A" d="M441.465,174.345c-0.334-0.173-0.668-0.346-1.002-0.519c3.173-1.676,6.278-3.381,8.427-6.457
		c4.951-7.085,5.796-14.627,2.832-22.673c0.295-0.044,0.59-0.088,0.885-0.131C458.109,155.29,451.75,171.15,441.465,174.345z"/>
	<path fill="#221A11" d="M352.973,275.139c-0.171-0.206-0.342-0.413-0.514-0.619c0.908-1.62,1.875-3.21,2.714-4.866
		c3.771-7.444,3.693-15.406,3.077-23.433c0.057-0.407,0.114-0.814,0.171-1.221c1.384,1.3,1.009,3.24,1.093,4.678
		c0.484,8.368-0.319,16.575-5.159,23.836C353.963,274.102,353.437,274.6,352.973,275.139z"/>
	<path fill="#221A11" d="M433.394,202.902c-0.56-0.191-0.524-0.703-0.618-1.146c0.69-2.949,1.38-5.897,2.094-8.95
		c-4.461,0.015-8.415-1.351-12.201-3.283c-0.787-0.402-2.336-0.669-1.806-1.75c0.511-1.041,1.547,0.157,2.25,0.511
		c3.565,1.792,7.287,2.987,11.28,3.274c0.749,0.205,1.697-0.265,2.234,0.658C434.977,195.604,434.787,199.435,433.394,202.902z"/>
	<path fill="#36281A" d="M294.858,406.564c0.351,0.187,0.702,0.373,1.053,0.56c-8.046,3.22-16.223,5.833-25.062,5.371
		C279.103,411.522,287.052,409.336,294.858,406.564z"/>
	<path fill="#36281A" d="M252.649,329.085c-0.232,0.294-0.463,0.587-0.695,0.881c-2.158-5.834-5.181-11.222-8.488-16.464
		c0.225-0.198,0.449-0.396,0.674-0.594C247.918,317.805,250.785,323.181,252.649,329.085z"/>
	<path fill="#36281A" d="M436.628,192.215c-0.538-0.923-1.485-0.453-2.234-0.658c7.159-1.91,9.651-6.817,7.101-13.984
		c0.199-0.246,0.398-0.492,0.597-0.737C445.794,182.392,443.05,190.114,436.628,192.215z"/>
	<path fill="#36281A" d="M354.149,230.425c-1.167-0.61,0.26-2.24-1.093-2.777c0.088,0.014,0.181,0.052,0.265,0.038
		c1.965-0.326,2.306-3.122,3.909-3.16c1.596-0.037,2.63,2.166,4.577,2.45c1.895,0.277,3.294-0.437,4.685-1.464
		c0.221,0.205,0.443,0.409,0.664,0.614c-2.01,2.185-4.862,2.757-7.466,1.549c-0.893-0.414-1.467-2.024-2.661-1.162
		C355.711,227.466,354.187,228.451,354.149,230.425z"/>
	<path fill="#36281A" d="M342.833,283.269c0.273-0.32,0.546-0.64,0.82-0.959c1.353,5.759-0.893,10.378-4.602,14.534
		c-0.183-0.229-0.366-0.458-0.55-0.686C341.356,292.336,343.405,288.243,342.833,283.269z"/>
	<path fill="#271204" d="M244.141,312.908c-0.225,0.198-0.449,0.396-0.674,0.593c-1.024-1.1-1.994-2.239-2.652-3.607
		c0.077-0.524,0.159-1.045,0.692-1.332c2.61,0.553,5.221,1.099,7.828,1.664c0.571,0.124,1.419,0.137,1.201,1.015
		c-0.173,0.698-0.879,0.376-1.37,0.29c-2.105-0.368-4.206-0.758-6.551-1.184C243.236,311.392,243.688,312.15,244.141,312.908z"/>
	<path fill="#36281A" d="M376.699,208.832c0.475,0.047,0.951,0.094,1.426,0.141c-2.976,2.447-5.951,4.893-8.927,7.339
		c-0.208-0.17-0.416-0.34-0.624-0.509C370.978,213.126,373.663,210.774,376.699,208.832z"/>
	<path fill="#221A11" d="M336.876,416.548c0.178,0.29,0.356,0.58,0.534,0.871c-1.465,0.21-2.907,0.718-4.418,0.351
		c-0.556-0.435-1.061-0.445-1.49,0.179c-3.791,0.122-7.582,1.118-11.373-0.003c0.022-0.265,0.044-0.531,0.065-0.796
		C325.769,417.33,331.323,416.961,336.876,416.548z"/>
	<path fill="#36281A" d="M358.421,245c-0.057,0.407-0.114,0.814-0.171,1.221c-1.083-3.223-2.004-6.515-4.004-9.344
		c0.172-0.252,0.345-0.505,0.517-0.757C357.088,238.625,358.42,241.539,358.421,245z"/>
	<path fill="#36281A" d="M344.4,280.584c-0.35-0.72-1.065-0.538-1.655-0.668c2.453-0.601,4.966-1.049,7.008-2.714
		c0.04,0.333,0.08,0.667,0.121,1.001C348.36,279.711,346.588,280.624,344.4,280.584z"/>
	<path fill="#36281A" d="M296.981,410.485c0.303-0.008,0.606-0.017,0.91-0.025c0.456,1.504-0.233,3.624,2.896,3.894
		C297.279,415.227,297.043,414.919,296.981,410.485z"/>
	<path fill="#36281A" d="M282.954,209.391c0.212,0.216,0.423,0.432,0.636,0.647c-1.647,0.826-3.294,1.653-4.942,2.48
		c-0.241-0.174-0.482-0.348-0.723-0.522C279.304,210.555,280.942,209.612,282.954,209.391z"/>
	<path fill="#36281A" d="M229.725,242.725c-0.42-0.334-0.84-0.667-1.26-1.001c1.107-1.741,1.711-4.005,4.339-4.16
		c-0.889,1.234-1.779,2.469-2.668,3.703C229.497,241.611,229.57,242.157,229.725,242.725z"/>
	<path fill="#36281A" d="M368.281,223.759c-0.104-1.716-0.448-3.441,0.176-5.132C368.859,220.353,369.1,222.074,368.281,223.759z"/>
	<path fill="#36281A" d="M320.194,417.15c-0.022,0.265-0.043,0.531-0.065,0.796c-1.249-0.199-2.498-0.398-4.36-0.696
		C317.67,416.902,318.93,416.883,320.194,417.15z"/>
	<path fill="#140D0C" d="M372.018,395.208c-0.21,0.237-0.42,0.474-0.63,0.712c-0.357-0.369-0.734-0.108-1.105-0.034
		c-0.046-0.589-0.092-1.178-0.137-1.765c0.002-0.236,0.003-0.472,0.004-0.709c0.195-0.237,0.389-0.473,0.584-0.71
		C371.312,393.461,371.984,394.171,372.018,395.208z"/>
	<path fill="#271204" d="M300.67,202.818c-0.465,1.634-1.448,2.649-3.233,2.706c-0.011-1.358,1.292-1.484,2.017-2.153
		c0.244-0.21,0.488-0.42,0.732-0.63C300.347,202.767,300.508,202.792,300.67,202.818z"/>
	<path fill="#271204" d="M225.772,261.687c-0.338-0.183-0.675-0.366-1.013-0.549c0.511-1.079,1.021-2.157,1.532-3.236
		c0.193-0.002,0.385-0.003,0.578-0.005c0.119,0.097,0.238,0.193,0.357,0.289C226.741,259.353,226.256,260.52,225.772,261.687z"/>
	<path fill="#140D0C" d="M245.08,338.081c1.393-0.788,2.904-1.117,4.49-1.158c-0.201,0.426-0.401,0.852-0.602,1.279
		c-0.679,0.031-1.359,0.061-2.038,0.091c-0.565-0.007-1.129-0.013-1.694-0.02L245.08,338.081z"/>
	<path fill="#140D0C" d="M345.51,347.919c1.251,0.18,2.608-0.375,3.753,0.541c0,0-0.207,0.117-0.207,0.117s-0.234-0.043-0.234-0.043
		c-0.871-0.137-1.666-0.153-1.675,1.065c0,0,0-0.003,0-0.003c-0.174-0.016-0.347-0.01-0.52,0.019
		C346.254,349.051,345.882,348.485,345.51,347.919z"/>
	<path fill="#140D0C" d="M242.419,339.208c0.722-0.764,1.663-1.012,2.661-1.126c0,0,0.156,0.192,0.156,0.192
		c-0.191,0.324-0.382,0.648-0.572,0.972c-0.325,0.041-0.649,0.082-0.974,0.123c-0.376-0.001-0.751-0.002-1.127-0.003
		C242.563,339.365,242.419,339.208,242.419,339.208z"/>
	<path fill="#060720" d="M370.734,392.702c-0.195,0.237-0.389,0.473-0.582,0.709c-1.066-0.361-0.995-1.316-1.132-2.163
		c0.15-0.155,0.3-0.309,0.45-0.464C370.087,391.294,370.533,391.917,370.734,392.702z"/>
	<path fill="#060720" d="M248.967,338.202c0.201-0.426,0.401-0.852,0.602-1.278c0,0,0.089-0.074,0.089-0.073
		c0.486,0.073,0.972,0.145,1.458,0.217c0,0,0.05,0.144,0.05,0.143C250.894,338.562,249.836,338.171,248.967,338.202z"/>
	<path fill="#36281A" d="M331.503,417.949c0.429-0.624,0.934-0.614,1.49-0.179C332.537,418.175,332.021,418.072,331.503,417.949z"/>
	<path fill="#36281A" d="M347.147,349.6c0.009-1.218,0.804-1.203,1.675-1.065C348.263,348.89,347.705,349.245,347.147,349.6z"/>
	<path fill="#140D0C" d="M241.549,340.467c-0.262-0.046-0.523-0.092-0.785-0.138c0.366-0.648,0.853-1.116,1.654-1.121
		c0,0,0.145,0.157,0.144,0.157c-0.023,0.325-0.047,0.65-0.07,0.974C242.178,340.382,241.864,340.424,241.549,340.467z"/>
	<path fill="#36281A" d="M353.75,60.148c0.332,0.553,0.365,1.07-0.183,1.518C353.439,61.137,353.416,60.621,353.75,60.148z"/>
	<path fill="#36281A" d="M337.45,302.675c-0.518-0.402-0.6-0.909-0.362-1.494C337.558,301.594,337.568,302.119,337.45,302.675z"/>
	<path fill="#36281A" d="M367.04,387.815c-0.687-0.005-1.038-0.35-1.049-1.037C366.528,386.934,366.898,387.259,367.04,387.815z"/>
	<path fill="#36281A" d="M251.117,337.067c-0.486-0.072-0.972-0.145-1.458-0.217c0.437-0.414,0.947-0.369,1.47-0.233
		C251.137,336.767,251.133,336.917,251.117,337.067z"/>
	<path fill="#060720" d="M368.794,389.911c0.225,0.291,0.45,0.582,0.675,0.873c-0.15,0.155-0.3,0.309-0.448,0.462
		c-0.563-0.177-0.898-0.556-1-1.139c0,0,0.187-0.185,0.186-0.185C368.402,389.919,368.598,389.915,368.794,389.911z"/>
	<path fill="#36281A" d="M227.75,245.026c-0.311-0.028-0.622-0.057-0.933-0.085c-0.033-0.487,0.135-0.878,0.549-1.151
		c0.204,0.227,0.408,0.454,0.612,0.68C227.902,244.655,227.826,244.84,227.75,245.026z"/>
	<path fill="#36281A" d="M297.613,408.238c-0.224-0.505-0.187-0.888,0.463-0.98C297.922,407.585,297.767,407.911,297.613,408.238z"
		/>
	<path fill="#221A11" d="M382.139,209.432c-0.29,0.213-0.58,0.426-0.87,0.639c-0.38-0.077-0.508-0.259-0.254-0.603
		C381.367,208.727,381.762,209.355,382.139,209.432z"/>
	<path fill="#221A11" d="M367.156,226.126c-0.221-0.205-0.443-0.409-0.664-0.614c0.256-0.229,0.463-0.19,0.62,0.115
		c0.052,0.107,0.12,0.21,0.147,0.323C367.269,225.999,367.193,226.067,367.156,226.126z"/>
	<path fill="#36281A" d="M226.869,257.897c-0.193,0.002-0.385,0.003-0.578,0.005c0.123-0.304,0.245-0.607,0.368-0.911
		C226.728,257.293,226.798,257.595,226.869,257.897z"/>
	<path fill="#271204" d="M349.874,278.202c-0.04-0.333-0.08-0.667-0.12-1c0.033-0.1,0.09-0.183,0.173-0.248
		c0.231,0.219,0.462,0.439,0.693,0.659C350.371,277.809,350.123,278.006,349.874,278.202z"/>
	<path fill="#271204" d="M295.797,207.149c0.33,0.682-0.088,0.629-0.537,0.547C295.073,207.154,295.249,206.968,295.797,207.149z"/>
	<path fill="#36281A" d="M296.648,407.765c0.071,0.265,0.142,0.531,0.213,0.796C296.79,408.296,296.719,408.031,296.648,407.765z"/>
	<path fill="#271204" d="M338.502,296.157c0.183,0.229,0.366,0.458,0.549,0.687c0.019,0.196-0.07,0.307-0.265,0.334
		c-0.202-0.24-0.404-0.48-0.605-0.72C338.25,296.317,338.357,296.217,338.502,296.157z"/>
	<path fill="#271204" d="M338.786,297.178c0,0-0.12,0.142-0.12,0.141c-0.237-0.014-0.474-0.027-0.71-0.041
		c0,0-0.141-0.156-0.141-0.156c0.122-0.221,0.244-0.443,0.366-0.664C338.382,296.698,338.584,296.938,338.786,297.178z"/>
	<path fill="#36281A" d="M337.955,297.278c0.237,0.014,0.473,0.027,0.71,0.041c-0.199,0.25-0.397,0.501-0.596,0.751
		C338.032,297.806,337.993,297.542,337.955,297.278z"/>
	<path fill="#271204" d="M296.348,206.602c0.135,0.497,0.109,0.832-0.542,0.538C295.625,206.597,295.808,206.42,296.348,206.602z"/>
	<path fill="#271204" d="M296.884,206.077c0.052,0.144,0.104,0.289,0.156,0.433c-0.233,0.034-0.466,0.068-0.7,0.102
		C296.16,206.068,296.332,205.88,296.884,206.077z"/>
	<path fill="#271204" d="M297.433,205.536c0.012,0.198,0.098,0.434,0.02,0.587c-0.184,0.362-0.37-0.025-0.561-0.054
		C296.696,205.51,296.894,205.351,297.433,205.536z"/>
	<path fill="#36281A" d="M368.794,389.911c-0.196,0.004-0.392,0.008-0.586,0.011c0.028-0.233,0.055-0.465,0.082-0.697
		C368.458,389.454,368.626,389.683,368.794,389.911z"/>
	<path fill="#36281A" d="M300.186,202.741c-0.244,0.21-0.488,0.42-0.732,0.63C299.552,202.991,299.8,202.786,300.186,202.741z"/>
	<path fill="#36281A" d="M346.627,349.616c0.173-0.029,0.346-0.035,0.52-0.019c-0.126,0.283-0.252,0.565-0.378,0.847
		C346.721,350.168,346.674,349.892,346.627,349.616z"/>
	<path fill="#271204" d="M345.758,178.919c-3.319,1.281-7.195,0.686-10.135,3.2c-2.911,2.49-3.35,6.361-5.598,9.258
		c0.455-3.724,1.576-7.236,4.369-9.881C337.592,178.467,341.606,178.242,345.758,178.919z"/>
	<path fill="#271204" d="M328.366,168.267c-1.28-0.745-2.301-1.34-3.499-2.037c3.728-1.026,9.108,2.917,9.023,6.305
		c-0.559,0.163-0.801-0.191-1.021-0.607c-0.666-1.257-1.359-2.969-2.95-2.603c-1.857,0.427-3.109,1.962-3.68,3.938
		c-0.216,0.748,0.422,2.311-0.824,2.1c-1.127-0.19-0.471-1.687-0.368-2.565C325.28,170.813,326.887,169.641,328.366,168.267z"/>
	<path fill="#36281A" d="M354.674,60.623c0.04-0.334,0.08-0.668,0.119-1.002C354.753,59.954,354.714,60.288,354.674,60.623z"/>
	<path fill="#F04706" d="M229.725,242.725c-0.154-0.568-0.228-1.113,0.411-1.458c0.32,1.472,1.514,0.965,2.389,0.979
		c3.528,0.057,7.079-0.194,10.5,0.985C238.591,243.062,234.158,242.894,229.725,242.725z"/>
	<path fill="#000184" d="M241.549,340.467c0.315-0.043,0.629-0.085,0.944-0.128c0.717,0.068,1.046-0.342,1.197-0.972
		c0.325-0.041,0.649-0.082,0.974-0.122c0.897,0.019,1.907,0.309,2.266-0.952c0.679-0.03,1.359-0.061,2.038-0.091
		c0.868-0.031,1.927,0.36,2.199-0.992c0.486,0.007,0.973,0.012,1.46,0.018c0.383,1.018-0.278,2.28,0.737,3.151
		c-0.027,1.07-0.055,2.141-0.082,3.211c-1.764,0.421-3.245-0.4-4.806-1.001c-0.578-0.223-1.584-0.406-1.905,0.356
		c-0.386,0.915,0.607,1.286,1.205,1.372c1.585,0.228,2.806,1.496,4.456,1.452c1.473,1.568,3.691,1.508,5.45,1.872
		c7.4,1.531,14.895,2.858,22.511,2.279c1.796-0.137,3.537-1.071,5.432-0.949c2.081,0.277,4.003-0.721,5.952-0.864
		c4.785-0.351,9.239-2.452,14.065-2.373c0.632,0.01,0.927-0.445,1.099-0.991c4.142-1.456,8.569-1.969,12.518-4.157
		c1.536-0.851,3.64-1.815,5.118,0.899c1.079,1.983,0.522,3.487-0.539,4.942c-1.205,1.654-2.727,3.051-4.728,3.776
		c-3.803,1.449-7.672,2.731-11.476,4.155c-8.073,3.021-16.096,5.984-24.918,5.527c-0.528-0.027-1.105-0.012-1.585,0.174
		c-0.565,0.219-1.21,0.617-1.076,1.346c0.127,0.694,0.844,0.514,1.342,0.547c5.018,0.336,9.896-0.414,14.732-1.74
		c6.308-1.729,12.304-4.351,18.532-6.306c1.975-0.62,4.264-0.663,5.594-2.668c1.702-0.614,3.387-1.908,5.241-0.76
		c1.182,0.732,2.393,0.57,3.614,0.754c2.223,0.336,4.293-1.229,6.25-0.893c2.819,0.484,5.081-0.278,7.408-1.465
		c3.223,0.296,3.274,0.58,1.687,3.204c-3.876,6.409-9.944,9.619-16.681,12.08c-2.858,1.044-6.022,1.475-8.891,3.85
		c2.956,1.016,5.165-0.555,7.286-1.24c5.143-1.662,10.026-4.017,14.409-7.273c0.413-0.307,0.899-0.901,1.369-0.412
		c0.295,0.307,0.332,1.038,0.227,1.523c-0.627,2.892-1.77,5.696-3.867,7.697c-3.458,3.299-7.504,5.88-12,7.624
		c-0.764,0.296-1.42,0.497-1.157,1.405c0.314,1.085,0.999,0.593,1.679,0.295c6.003-2.627,11.72-5.631,15.231-11.53
		c0.607-1.021,1.368-1.213,2.19-0.512c2.244,1.913,4.513,3.802,6.127,6.349c0.903,1.425,0.68,2.548-0.576,3.502
		c-3.826,2.906-7.955,5.283-12.442,7.025c-2.729,1.059-5.382,2.381-8.188,3.16c-4.755,1.32-9.444,2.799-14.383,3.61
		c-5.359,0.879-10.629,1.983-16.095,1.86c-3.963-0.089-5.161-1.948-3.353-5.603c0.458-0.927,1.074-1.761,0.498-3.504
		c6.003,3.618,11.433,2.01,16.883,0.526c0.848-0.231,1.742-0.326,1.37-1.441c-0.357-1.069-1.283-0.691-2.04-0.444
		c-3.055,0.997-6.074,1.998-9.391,1.831c-3.296-0.165-5.59-1.978-7.221-4.452c-0.814-1.234,0.908-1.897,1.938-1.918
		c3.267-0.066,6.214-1.336,9.296-2.114c1.337-0.338,2.382-1.061,3.87-1.748c-2.878-1.566-5.169,0.214-7.316,0.872
		c-2.308,0.707-4.691,1.151-6.99,1.588c-4.279,0.812-8.696,1.022-13.067,1.19c-5.19,0.199-10.285-0.732-15.319-1.952
		c-0.811-0.197-1.501-0.13-3.392,0.453c2.707,2.045,5.742,2.508,8.605,2.597c5.705,0.179,11.428,0.761,17.138,0.106
		c1.784-0.204,2.856,0.643,3.716,2.036c1.346,2.179,1.036,2.542-1.357,3.441c-5.407,2.032-10.922,3.494-16.606,4.566
		c-8.599,1.622-17.107,1.613-25.652-0.159c-3.291-0.682-6.772-0.62-9.736-2.536c-1.141-0.738-2.213-1.555-2.472-3.025
		c1.798,0.352,1.874-1.509,2.848-2.216c3.36,1.264,6.347,3.681,10.232,3.318c0.595-0.055,1.262,0.149,1.93-0.647
		c-2.752-0.951-5.47-1.711-8.034-2.827c-2.547-1.108-4.858-2.642-5.858-5.507c-0.92-2.635,1.097-3.851,2.504-5.383
		c1.442-1.57,2.255-0.029,3.375,0.555c3.326,1.732,6.252,4.698,11.193,3.824c-3.315-2.306-6.636-3.282-9.553-5.021
		c-3.25-1.937-5.047-4.596-5.949-8.119c-0.469-1.833,0.401-3.307,1.612-4.156c1.083-0.759,2.276,0.414,3.219,1.256
		c2.087,1.862,4.778,2.678,7.133,4.077c0.64,0.38,1.555,0.669,1.864-0.122c0.319-0.816-0.385-1.372-1.249-1.717
		c-4.705-1.88-8.724-4.715-11.994-8.627c-1.73-2.07-2.035-4.369-1.282-6.792C240.385,342.322,241.312,341.551,241.549,340.467z"/>
	<path fill="#000185" d="M368.021,390.107c0.103,0.583,0.437,0.962,1,1.139c0.135,0.849,0.064,1.804,1.13,2.165
		c-0.002,0.238-0.003,0.475-0.006,0.71c-1.524,0.637-1.9,2.277-2.917,3.369c-3.146,3.38-7.423,4.678-11.46,6.374
		c-9.641,4.05-19.841,5.354-30.176,5.377c-4.609,0.01-9.24-0.781-13.823-1.461c-3.691-0.548-7.427-0.717-11.093-1.566
		c-1.82-0.421-2.678-1.008-2.67-2.924c0.01-2.695,0.218-5.365,0.58-8.029c0.203-1.497,1.023-1.952,2.539-2.119
		c6.897-0.76,13.814-1.52,20.544-3.274c8.838-2.302,17.33-5.544,25.307-10.041c1.633-0.921,3.115-0.736,4.816-0.064
		c5.51,2.176,10.499,5.106,14.68,9.349C366.891,389.539,367.5,389.78,368.021,390.107z"/>
	<path fill="#000184" d="M262.016,405.017c-7.969,0.501-15.047-1.253-22.051-3.408c-2.992-0.921-3.457-2.174-2.161-6.437
		c0.739-2.432,1.796-4.768,2.715-7.145c0.454-1.175,1.064-1.175,2.292-0.795c2.402,0.744,4.875,1.3,7.373,1.773
		c6.402,1.211,12.836,1.089,19.279,0.968c1.594-0.03,1.631,1.021,1.9,2.046c1.427,5.434,5.784,7.237,11.058,4.835
		c2.501-1.139,4.371-2.623,5.385-5.226c0.419-1.077,0.649-1.998,0.066-3.061c-0.901-1.643-0.207-2.588,1.483-2.852
		c1.357-0.212,2.676-2.018,3.93-0.794c1.139,1.111-0.161,2.69-0.414,4.034c-0.624,3.316-0.504,3.633,2.797,4.278
		c0.692,0.135,1.264,0.279,1.234,1.087c-0.04,1.117,0.332,2.298-0.861,3.191c-1.965,1.471-4.266,2.37-6.505,2.981
		c-4.183,1.142-8.333,2.684-12.58,3.278C271.851,404.484,266.725,405.797,262.016,405.017z"/>
	<path fill="#140D0C" d="M319.109,350.203c2.001-0.725,3.523-2.122,4.728-3.776c1.061-1.455,1.618-2.959,0.539-4.942
		c-1.477-2.714-3.582-1.75-5.118-0.899c-3.949,2.188-8.376,2.701-12.519,4.157c-0.788-0.214-1.971,0.419-2.188-1.02
		c1.993-2.382,1.079-4.495-0.608-6.535c0.782-0.381,1.032-1.023,0.91-1.849c0.224-0.289,0.448-0.579,0.672-0.868
		c1.009,2.16,1.282,4.463,1.365,6.813c0.026,0.73-0.212,2.044,1.012,1.711c4.439-1.205,9.036-2.105,12.717-5.193
		c0.21-0.452,0.6-0.596,1.061-0.617c5.058,3.517,5.59,5.14,3.121,10.436c-0.604,1.295,0.172,1.269,0.939,1.542
		c5.092,1.814,7.641,0.748,10.581-4.457c0.597,0.318,0.488,0.892,0.515,1.416c-0.34,0.898-1.128,1.604-1.158,2.899
		c7.263,0.537,9.869-4.809,12.694-9.977c0.339,2.415-0.784,4.17-1.981,5.947c-0.468,0.695-1.778,1.187-0.913,2.42
		c0.018,0.167,0.029,0.334,0.033,0.502c-0.936,0.26-2.261-0.592-2.745,0.959c-2.328,1.185-4.589,1.948-7.408,1.464
		c-1.957-0.336-4.027,1.229-6.25,0.893c-1.221-0.184-2.432-0.022-3.614-0.754c-1.854-1.148-3.538,0.146-5.242,0.759
		C319.636,351.151,319.114,350.963,319.109,350.203z"/>
	<path fill="#F5F5F5" d="M278.213,396.426c-3.683-0.045-5.748-2.604-5.123-6.19c0.19-1.089,0.825-1.161,1.66-1.316
		c2.8-0.521,5.587-1.114,8.379-1.683c0.909-0.185,1.913-1.065,2.701-0.024c0.762,1.007,1.047,2.211,0.659,3.541
		C285.564,393.919,281.894,396.471,278.213,396.426z"/>
	<path fill="#000185" d="M240.939,379.184c-0.974,0.706-1.049,2.567-2.848,2.216c-0.791-1.05-0.475-1.967,0.4-2.747
		C239.512,377.744,240.209,378.601,240.939,379.184z"/>
	<path fill="#FAD901" d="M320.619,337.802c-3.681,3.088-8.277,3.987-12.717,5.193c-1.224,0.332-0.986-0.981-1.012-1.711
		c-0.082-2.35-0.356-4.653-1.365-6.813c-2.202-6.322-6.442-11.175-11.26-15.61c-0.631-1.344-4.073-1.897-0.823-4.303
		c-1.579-0.368-2.758,0.002-3.948,0.206c-3.186,0.546-6.37,1.083-9.616,0.461c-6.859-1.313-12.292-5.236-17.393-9.66
		c-6.377-5.53-10.812-12.402-11.646-20.87c-0.84-8.522-1.151-17.211,6.412-23.602c0.211-0.179,0.367-0.736,0.247-0.932
		c-0.287-0.468-0.834-0.378-1.133-0.007c-1.958,2.434-2.527,0.639-3.232-0.996c-0.184-0.427-0.325-1.199-1.047-0.963
		c-0.674,0.22-0.597,0.94-0.285,1.343c2.031,2.617,0.987,4.887-0.552,7.26c-0.66,1.018-1.03,2.307-1.239,3.523
		c-2.786,16.252,0.849,29.016,16.3,39.864c3.881,2.725,7.43,5.482,9.629,9.732c2.506,5.198,4.99,10.404,6.024,16.151
		c0.133,1.418,0.266,2.836,0.399,4.254c-0.27,0.703-0.378,1.417-0.149,2.155c-0.085,0.389-0.17,0.778-0.256,1.167
		c-0.13,0.155-0.15,0.324-0.062,0.506c-0.417,3.463-2.544,4.176-5.738,4.151c-6.761-0.052-13.376-0.855-19.89-2.627
		c-1.244-0.339-1.688-1.02-1.578-2.341c0.41-4.895-0.53-9.617-2.042-14.247c-1.864-5.904-4.731-11.28-8.509-16.177
		c-0.452-0.758-0.904-1.516-1.526-2.56c2.345,0.426,4.446,0.816,6.551,1.184c0.491,0.086,1.197,0.408,1.37-0.29
		c0.218-0.878-0.63-0.891-1.201-1.015c-2.607-0.566-5.218-1.112-7.828-1.664c-14.74-5.773-19.079-20.802-18.117-34.519
		c0.296-4.217,1.207-8.311,2.382-12.357c0.485-1.167,0.969-2.333,1.454-3.5c2.527-5.021,5.538-9.644,10.416-12.75
		c0.911-0.58,1.77-1.104,2.956-1.015c21.174,1.598,41.296,6.326,58.574,19.575c0.428,0.328,0.824,0.7,1.269,1.001
		c4.678,3.163,6.242,6.669,4.78,12.892c-4.149,17.651,0.267,34.109,9.535,49.4c0.613,1.011,1.205,1.977,1.362,3.165
		C316.529,333.569,318.134,335.956,320.619,337.802z"/>
	<path fill="#FAD901" d="M345.478,347.413c-0.865-1.233,0.445-1.726,0.913-2.42c1.197-1.777,2.321-3.532,1.981-5.947
		c-2.825,5.168-5.431,10.514-12.694,9.977c0.03-1.295,0.818-2,1.159-2.899c0.303-0.628,0.788-1.234,0.87-1.89
		c0.155-1.244,1.413-3.307,0.341-3.547c-1.73-0.389-0.82,2.023-1.558,2.997c-0.185,0.244-0.119,0.678-0.168,1.024
		c-2.939,5.205-5.489,6.271-10.581,4.457c-0.768-0.273-1.543-0.248-0.939-1.542c2.469-5.295,1.938-6.919-3.121-10.436
		c-2.406-2.145-4.319-4.533-4.331-8.003c-0.002-0.553-0.479-1.133-0.81-1.653c-7.654-12.025-11.888-25.06-11.387-39.415
		c0.457-13.109,4.711-24.904,12.636-35.386c1.017-1.346,1.854-1.731,3.536-1.092c8.1,3.074,15.17,7.619,21.163,13.907
		c1.533,1.608,1.799,2.707,0.541,4.745c-5.349,8.662-8.437,17.983-7.328,28.36c0.288,2.695,0.898,5.288,1.943,7.784
		c1.631,4.862,4.51,8.89,8.23,12.362c2.157,2.013,4.428,3.924,6.422,6.088c5.417,5.88,5.104,14.887-0.455,20.654
		C349.998,347.448,347.839,347.607,345.478,347.413z"/>
	<path fill="#FC4C03" d="M354.246,236.878c2.001,2.829,2.922,6.122,4.004,9.344c0.616,8.027,0.694,15.988-3.077,23.432
		c-0.839,1.655-1.806,3.246-2.714,4.866c-1.589,1.369-1.999-0.299-2.487-1.108c-3.272-5.421-7.363-10.086-12.301-14.059
		c-7.413-5.965-15.875-9.68-25.126-11.464c-3.112-0.6-2.066-1.995-1.272-3.412c2.901-5.175,7.648-8.227,12.912-10.432
		c6.454-2.704,13.154-4.016,20.21-2.665C348.331,232.133,351.626,233.856,354.246,236.878z"/>
	<path fill="#F04706" d="M338.181,296.458c-0.122,0.221-0.244,0.443-0.366,0.664c-1.418,0.061-0.925-1.06-0.961-1.707
		c-0.234-4.222,0.512-8.32,1.709-12.351c0.339-1.142,0.661-2.084,2.249-2.055c1.688,0.031,1.751,1.153,2.02,2.26
		c0.572,4.974-1.477,9.067-4.332,12.888C338.357,296.217,338.25,296.317,338.181,296.458z"/>
	<path fill="#F04706" d="M349.927,276.954c-0.083,0.065-0.14,0.148-0.173,0.248c-2.042,1.665-4.555,2.113-7.008,2.714
		c-3.095-0.106-3.069-0.094-1.842-2.934c0.992-2.298,2.191-4.477,3.517-6.594c0.393-0.627,0.883-1.495,1.53-0.506
		C347.431,272.142,349.659,274.008,349.927,276.954z"/>
	<path fill="#F04706" d="M227.75,245.026c0.076-0.185,0.152-0.371,0.228-0.556c2.222-1.097,4.565-0.485,6.853-0.42
		c1.032,0.029,1.182,0.768,0.403,1.427c-2.878,2.433-5.277,5.288-7.506,8.765C225.908,250.877,226.671,247.951,227.75,245.026z"/>
	<path fill="#F04706" d="M312.383,257.826c-1.486-2.137-2.476-4.29-2.606-6.778c-0.023-0.447-0.034-0.899,0.007-1.344
		c0.058-0.636,0.455-1.038,1.077-0.88c2.143,0.545,4.5,0.5,6.355,1.797c0.603,0.422-0.407,1.228-0.82,1.751
		C315.022,254.107,314.133,256.21,312.383,257.826z"/>
	<path fill="#FCFCFC" d="M397.984,168.456c-13.992-0.048-25.463-11.119-25.405-24.521c0.058-13.36,11.887-24.57,25.856-24.502
		c13.852,0.067,25.38,11.308,25.32,24.689C423.695,157.777,412.334,168.505,397.984,168.456z M395.664,141.69
		c0.043-2.017-1.692-3.794-3.698-3.787c-2.02,0.007-3.785,1.767-3.773,3.763c0.011,1.88,1.672,3.546,3.6,3.61
		C393.876,145.345,395.62,143.729,395.664,141.69z"/>
	<path fill="#FBFBFB" d="M451.722,144.697c2.964,8.046,2.12,15.588-2.832,22.673c-2.149,3.076-5.255,4.781-8.427,6.457
		c-7.168-4.021-15.405-5.045-22.898-8.16c-2.012-0.836-2.569-1.463-0.628-3.325c7.289-6.991,9.612-15.543,7.054-25.306
		c-0.421-1.605-0.184-2.016,1.339-2.657C435.589,130.065,447.407,135.514,451.722,144.697z M441.781,150.957
		c-2.546-0.007-3.721,1.185-3.951,3.214c-0.19,1.681,1.636,3.491,3.425,3.419c2.031-0.081,3.423-1.113,3.466-3.274
		C444.763,152.159,443.461,151.122,441.781,150.957z"/>
	<path fill="#F9F9F9" d="M366.058,202.622c-0.336,0.436-0.627,0.885-0.988,1.27c-2.761,2.945-5.562,5.854-8.291,8.829
		c-0.865,0.943-1.611,1.031-2.807,0.531c-7.788-3.259-7.889-3.557-2.644-10.022c1.695-2.089,3.376-4.188,5.08-6.269
		c0.48-0.587,0.837-1.465,1.887-0.619c2.373,1.91,4.805,3.747,7.204,5.624C365.703,202.123,365.842,202.362,366.058,202.622z"/>
	<path fill="#F9F9F9" d="M345.499,207.85c-0.592-0.55-1.257-1.128-1.878-1.751c-4.668-4.684-4.664-4.686-0.914-9.903
		c1.198-1.667,2.495-3.273,3.559-5.021c1.195-1.962,2.214-2.343,4.315-0.861c6.15,4.337,6.227,4.223,1.494,10.054
		c-1.689,2.08-3.365,4.17-5.049,6.254C346.643,207.094,346.351,207.677,345.499,207.85z"/>
	<path fill="#F9F9F9" d="M376.699,208.832c-3.036,1.941-5.72,4.293-8.124,6.972c-3.727,1.475-7.127-0.338-10.623-1.091
		c-1.117-0.241-0.521-0.903-0.099-1.352c2.933-3.13,5.883-6.244,8.829-9.362c0.306-0.324,0.702-0.81,1.112-0.555
		C370.738,205.279,374.3,206.101,376.699,208.832z"/>
	<path fill="#F5F5F5" d="M338.829,199.337c-3.276-5.642-1.987-10.077,3.178-11.7c0.583-0.183,1.236-0.357,1.82-0.276
		c0.868,0.121,2.031,0.218,2.477,0.788c0.662,0.847-0.472,1.556-0.956,2.235C343.227,193.356,341.055,196.29,338.829,199.337z"/>
	<path fill="#000184" d="M303.553,337.102c0.145-0.038,0.276-0.009,0.392,0.086c1.686,2.04,2.601,4.152,0.607,6.534
		c-0.917,0.302-1.829,0.854-2.749,0.866c-5.135,0.068-9.912,2.388-15.058,2.316c-0.605-0.008-1.013,0.304-1.14,0.925
		c-3.241,0.109-3.275,0.102-2.615-3.056c0.381-1.821,1.245-3.54,1.004-5.488c-0.073-0.586,0.316-0.959,0.944-1.096
		c5.534-1.208,11.118-1.337,16.722-0.718C302.399,337.555,303.036,337.854,303.553,337.102z"/>
	<path fill="#060720" d="M285.604,347.83c0.127-0.621,0.535-0.933,1.14-0.925c5.146,0.072,9.923-2.249,15.058-2.316
		c0.92-0.012,1.833-0.564,2.749-0.866c0.217,1.44,1.4,0.806,2.189,1.02c-0.172,0.546-0.467,1.002-1.099,0.992
		c-4.826-0.079-9.28,2.023-14.065,2.373c-1.949,0.143-3.872,1.141-5.952,0.864C285.617,348.591,285.611,348.211,285.604,347.83z"/>
	<path fill="#36281A" d="M276.458,318.902c3.241,5.126,5.571,10.605,6.453,16.645c-0.315,0.174-0.631,0.347-0.946,0.521
		c-1.034-5.747-3.518-10.953-6.024-16.151C276.387,319.718,276.403,319.3,276.458,318.902z"/>
	<path fill="#060720" d="M252.231,345.769c-1.649,0.044-2.87-1.223-4.456-1.452c-0.598-0.086-1.591-0.457-1.205-1.372
		c0.321-0.761,1.327-0.578,1.905-0.356c1.562,0.601,3.042,1.422,4.806,1.001C253.454,344.568,252.14,344.83,252.231,345.769z"/>
	<path fill="#060720" d="M253.364,340.379c-1.015-0.871-0.354-2.133-0.737-3.151C254.614,337.87,253.917,339.141,253.364,340.379z"
		/>
	<path fill="#36281A" d="M282.215,342.476c-0.229-0.738-0.121-1.452,0.149-2.155C282.473,341.051,282.604,341.782,282.215,342.476z"
		/>
	<path fill="#36281A" d="M281.897,344.15c-0.088-0.182-0.068-0.351,0.062-0.506c0.044,0.126,0.104,0.25,0.123,0.38
		C282.086,344.056,281.962,344.107,281.897,344.15z"/>
	<path fill="#F04706" d="M278.648,212.518c1.647-0.827,3.295-1.653,4.942-2.48c2.214,0,4.428,0,6.739,0
		c-2.121,4.757-10.052,8.712-17.198,8.609C274.508,216.054,276.766,214.446,278.648,212.518z"/>
	<path fill="#060720" d="M246.929,338.293c-0.359,1.261-1.369,0.971-2.266,0.952c0.191-0.324,0.382-0.648,0.572-0.972
		C245.8,338.28,246.365,338.287,246.929,338.293z"/>
	<path fill="#060720" d="M243.69,339.368c-0.151,0.629-0.48,1.039-1.197,0.972c0.023-0.325,0.046-0.65,0.07-0.975
		C242.939,339.366,243.314,339.367,243.69,339.368z"/>
	<path fill="#060720" d="M319.109,350.203c0.005,0.76,0.527,0.949,1.144,1.034c-1.329,2.005-3.618,2.048-5.593,2.668
		c-6.227,1.956-12.224,4.577-18.532,6.306c-4.836,1.326-9.714,2.076-14.732,1.74c-0.498-0.033-1.215,0.148-1.342-0.547
		c-0.134-0.729,0.512-1.127,1.076-1.346c0.48-0.187,1.057-0.201,1.585-0.174c8.822,0.457,16.845-2.506,24.918-5.527
		C311.437,352.934,315.306,351.652,319.109,350.203z"/>
	<path fill="#36281A" d="M304.854,335.339c-2.507-6.178-6.792-11.102-11.237-15.912c0.216-0.189,0.432-0.377,0.649-0.566
		c4.818,4.435,9.058,9.288,11.26,15.61C305.302,334.76,305.078,335.05,304.854,335.339z"/>
	<path fill="#271204" d="M336.322,344.707c0.049-0.347-0.017-0.78,0.168-1.024c0.738-0.974-0.172-3.386,1.558-2.997
		c1.071,0.241-0.186,2.303-0.341,3.547c-0.082,0.656-0.567,1.261-0.87,1.89C336.81,345.599,336.918,345.024,336.322,344.707z"/>
	<path fill="#271204" d="M294.266,318.861c-0.216,0.189-0.432,0.377-0.649,0.566c-2.673-3.243-6.201-3.462-10.038-3.05
		c-2.65,0.285-5.334,0.074-7.876-0.931c-0.462-0.183-0.857-0.143-1.164,0.267c0.251-0.022,0.532-0.013,0.286-0.382
		c-0.08,0.128-0.159,0.255-0.239,0.383c0.623,1.063,1.247,2.126,1.87,3.189c-0.055,0.398-0.071,0.816-0.517,1.015
		c-2.199-4.25-5.748-7.007-9.629-9.732c-15.451-10.848-19.087-23.612-16.3-39.864c0.208-1.216,0.579-2.505,1.239-3.523
		c1.539-2.374,2.583-4.643,0.552-7.26c-0.312-0.403-0.389-1.123,0.285-1.343c0.722-0.236,0.863,0.537,1.047,0.963
		c0.705,1.635,1.274,3.43,3.232,0.996c0.299-0.371,0.845-0.461,1.133,0.007c0.12,0.196-0.035,0.754-0.247,0.932
		c-7.563,6.39-7.251,15.08-6.412,23.602c0.834,8.468,5.269,15.34,11.646,20.87c5.101,4.424,10.534,8.347,17.393,9.66
		c3.246,0.622,6.431,0.085,9.616-0.461c1.19-0.204,2.369-0.575,3.948-0.206C290.193,316.964,293.635,317.517,294.266,318.861z"/>
	<path fill="#140D0C" d="M395.664,141.69c-0.044,2.039-1.788,3.655-3.871,3.586c-1.928-0.064-3.589-1.73-3.6-3.61
		c-0.012-1.995,1.753-3.755,3.773-3.763C393.971,137.895,395.707,139.673,395.664,141.69z"/>
	<path fill="#140D0C" d="M441.781,150.957c1.681,0.166,2.982,1.203,2.94,3.359c-0.042,2.161-1.435,3.193-3.466,3.274
		c-1.789,0.072-3.615-1.739-3.425-3.419C438.06,152.142,439.235,150.95,441.781,150.957z"/>
	<path fill="#F5F5F5" d="M274.587,315.713c0.08-0.128,0.159-0.255,0.239-0.383c0.246,0.369-0.036,0.36-0.286,0.382
		C274.527,315.714,274.587,315.713,274.587,315.713z"/>
</g>
</svg>
